<svg width="32.000000" height="32.000000" viewBox="0 0 32 32" fill="none" xmlns="http://www.w3.org/2000/svg" xmlns:xlink="http://www.w3.org/1999/xlink">
	<desc>
			Created with Pixso.
	</desc>
	<defs>
		<clipPath id="clip40_3">
			<rect id="instagram" width="32.000000" height="32.000000" fill="white" fill-opacity="0"/>
		</clipPath>
		<linearGradient id="paint_linear_40_5_0" x1="7.500005" y1="-10.000000" x2="13.000003" y2="15.500001" gradientUnits="userSpaceOnUse">
			<stop offset="0.122265" stop-color="#4263DF"/>
			<stop offset="1.000000" stop-color="#D53585" stop-opacity="0.000000"/>
		</linearGradient>
		<radialGradient id="paint_radial_40_6_0" cx="0.000000" cy="0.000000" r="1.000000" gradientUnits="userSpaceOnUse" gradientTransform="translate(0.0728951 29.5081) rotate(-38.5799) scale(29.7078 29.7078)">
			<stop stop-color="#FFAD05"/>
			<stop offset="1.000000" stop-color="#FF3F00" stop-opacity="0.000000"/>
		</radialGradient>
		<radialGradient id="paint_radial_40_7_0" cx="0.000000" cy="0.000000" r="1.000000" gradientUnits="userSpaceOnUse" gradientTransform="translate(2.50607 25.9503) rotate(-38.0987) scale(20.3039 20.3039)">
			<stop offset="0.010000" stop-color="#FDDB86"/>
			<stop offset="1.000000" stop-color="#F06942" stop-opacity="0.000000"/>
		</radialGradient>
	</defs>
	<g clip-path="url(#clip40_3)">
		<path id="path" d="M0 16C0 24.8364 7.16309 32 16 32C24.8369 32 32 24.8364 32 16C32 7.16357 24.8369 0 16 0C7.16309 0 0 7.16357 0 16Z" fill="#FB2690" fill-opacity="1.000000" fill-rule="nonzero"/>
		<path id="path" d="M0 16C0 24.8364 7.16309 32 16 32C24.8369 32 32 24.8364 32 16C32 7.16357 24.8369 0 16 0C7.16309 0 0 7.16357 0 16Z" fill="url(#paint_linear_40_5_0)" fill-opacity="1.000000" fill-rule="nonzero"/>
		<path id="path" d="M0 16C0 24.8364 7.16309 32 16 32C24.8369 32 32 24.8364 32 16C32 7.16357 24.8369 0 16 0C7.16309 0 0 7.16357 0 16Z" fill="url(#paint_radial_40_6_0)" fill-opacity="1.000000" fill-rule="nonzero"/>
		<path id="path" d="M0 16C0 24.8364 7.16309 32 16 32C24.8369 32 32 24.8364 32 16C32 7.16357 24.8369 0 16 0C7.16309 0 0 7.16357 0 16Z" fill="url(#paint_radial_40_7_0)" fill-opacity="1.000000" fill-rule="nonzero"/>
		<path id="path" d="M11.8525 6.6665C10.4766 6.6665 9.1582 7.21289 8.18555 8.18506C7.21289 9.15771 6.66699 10.4766 6.66699 11.8516L6.66699 20.1479C6.66699 21.5229 7.21289 22.8423 8.18555 23.8145C9.1582 24.7871 10.4766 25.333 11.8525 25.333L20.1484 25.333C21.5234 25.333 22.8428 24.7871 23.8154 23.8145C24.7871 22.8423 25.334 21.5229 25.334 20.1479L25.334 11.8516C25.334 10.4766 24.7871 9.15771 23.8154 8.18506C22.8428 7.21289 21.5234 6.6665 20.1484 6.6665L11.8525 6.6665ZM22.2227 8.74072C22.793 8.74072 23.2598 9.20703 23.2598 9.77783C23.2598 10.3481 22.793 10.8145 22.2227 10.8145C21.6523 10.8145 21.1855 10.3481 21.1855 9.77783C21.1855 9.20703 21.6523 8.74072 22.2227 8.74072ZM16 10.8145C17.376 10.8145 18.6943 11.3608 19.667 12.3335C20.6396 13.3057 21.1855 14.6245 21.1855 16C21.1855 17.375 20.6396 18.6938 19.667 19.6665C18.6943 20.6387 17.376 21.1851 16 21.1851C14.625 21.1851 13.3066 20.6387 12.334 19.6665C11.3613 18.6938 10.8154 17.375 10.8154 16C10.8154 14.6245 11.3613 13.3057 12.334 12.3335C13.3066 11.3608 14.625 10.8145 16 10.8145ZM16 12.8887C15.5918 12.8887 15.1865 12.9697 14.8096 13.126C14.4316 13.2827 14.0889 13.5117 13.7998 13.8013C13.5107 14.0903 13.2822 14.4331 13.126 14.811C12.9697 15.1885 12.8887 15.5933 12.8896 16.002C12.8896 16.4106 12.9697 16.8154 13.127 17.1929C13.2832 17.5703 13.5127 17.9131 13.8018 18.2021C14.0908 18.4912 14.4336 18.7202 14.8115 18.8765C15.1895 19.0327 15.5938 19.1133 16.0029 19.1133C16.8281 19.1128 17.6191 18.7847 18.2031 18.2007C18.7861 17.6167 19.1143 16.8252 19.1133 16C19.1133 15.1743 18.7852 14.3828 18.2012 13.7998C17.6172 13.2163 16.8252 12.8887 16 12.8887Z" fill="#FFFFFF" fill-opacity="1.000000" fill-rule="nonzero"/>
	</g>
</svg>
