<svg width="32.000000" height="32.000000" viewBox="0 0 32 32" fill="none" xmlns="http://www.w3.org/2000/svg" xmlns:xlink="http://www.w3.org/1999/xlink">
	<desc>
			Created with Pixso.
	</desc>
	<defs>
		<clipPath id="clip40_13">
			<rect id="randomizer" width="32.000000" height="32.000000" fill="white" fill-opacity="0"/>
		</clipPath>
	</defs>
	<g clip-path="url(#clip40_13)">
		<path id="path" d="M21.0342 19.728L24.5723 22.3823L22.2588 22.3823C17.2246 22.3823 15.0479 20.7393 12.7354 18.9697C11.374 17.959 10.0137 16.9478 8.10938 16.1895C10.1504 15.4312 11.6465 14.2939 13.0068 13.2827C15.3203 11.5132 17.4971 9.74414 22.3945 9.74414L24.708 9.74414L21.1709 12.3979L21.1709 14.7993L29.334 8.73291L21.1709 2.6665L21.1709 5.06787L24.708 7.84814L22.3945 7.84814C16.8164 7.84814 14.0957 9.87012 11.7822 11.7661C9.46973 13.5356 7.29297 15.1782 2.66699 15.1782L2.66699 17.0742C7.29297 17.0742 9.33398 18.7168 11.5107 20.3599C13.8232 22.1294 16.5449 24.2778 22.2588 24.2778L24.5723 24.2778L21.0342 26.9321L21.0342 29.333L29.1973 23.2666L21.0342 17.2007L21.0342 19.728Z" fill="#8B55F7" fill-opacity="1.000000" fill-rule="nonzero"/>
	</g>
</svg>
