<svg width="32.000000" height="32.000000" viewBox="0 0 32 32" fill="none" xmlns="http://www.w3.org/2000/svg" xmlns:xlink="http://www.w3.org/1999/xlink">
	<desc>
			Created with Pixso.
	</desc>
	<defs>
		<clipPath id="clip40_9">
			<rect id="website" width="32.000000" height="32.000000" fill="white" fill-opacity="0"/>
		</clipPath>
	</defs>
	<g clip-path="url(#clip40_9)">
		<path id="path" d="M10.1221 10.3335C7.33887 10.3335 5 12.6548 5 15.3335C5 18.0122 7.33887 20.3335 10.1221 20.3335L12.5449 20.3335L12.5449 22.3335L10.1221 22.3335C6.27246 22.3335 3 19.1548 3 15.3335C3 11.5122 6.27246 8.3335 10.1221 8.3335L12.5449 8.3335C16.3945 8.3335 19.667 11.5122 19.667 15.3335L17.667 15.3335C17.667 12.6548 15.3271 10.3335 12.5449 10.3335L10.1221 10.3335ZM21.8779 10.3335L19.4551 10.3335L19.4551 8.3335L21.8779 8.3335C25.7275 8.3335 29 11.5122 29 15.3335C29 19.1548 25.7275 22.3335 21.8779 22.3335L19.4365 22.3335C15.6367 22.1904 12.333 19.1738 12.333 15.2085L14.333 15.2085C14.333 17.9873 16.6504 20.2178 19.4746 20.3335L21.8779 20.3335C24.6611 20.3335 27 18.0122 27 15.3335C27 12.6548 24.6611 10.3335 21.8779 10.3335Z" fill="#0084FF" fill-opacity="1.000000" fill-rule="evenodd"/>
	</g>
</svg>
