<svg width="28" height="28" viewBox="0 0 28 28" fill="none" xmlns="http://www.w3.org/2000/svg">
<path d="M2.35329 26.8516C2.1118 26.8516 1.89092 26.7698 1.70268 26.6427C1.64674 26.605 1.59106 26.5689 1.54203 26.5223C1.5308 26.512 1.52079 26.5007 1.50991 26.4901C1.49935 26.4793 1.488 26.4692 1.47775 26.458C1.4309 26.4091 1.39502 26.3533 1.35727 26.2973C1.23017 26.1091 1.14844 25.8882 1.14844 25.6467V25.5905V22.6266L1.14844 18.1607C1.14845 17.5694 1.58878 17.0768 2.17657 16.9719L2.17656 24.5704C2.17656 25.2631 2.73691 25.8234 3.42958 25.8234L11.028 25.8234C10.9231 26.4112 10.4306 26.8515 9.83927 26.8515H5.3814L2.40949 26.8515L2.35329 26.8516ZM14 26.8516C13.18 26.8516 12.514 26.1856 12.514 25.3656C12.514 24.5456 13.18 23.8796 14 23.8796C14.82 23.8796 15.4859 24.5456 15.4859 25.3656C15.4859 26.1856 14.82 26.8516 14 26.8516ZM18.1526 26.8516C17.5613 26.8516 17.0754 26.4112 16.9719 25.8234L24.5704 25.8234C25.263 25.8234 25.8234 25.2631 25.8234 24.5704L25.8234 16.9719C26.4112 17.0768 26.8515 17.5694 26.8515 18.1607L26.8515 22.6266V25.5905V25.6467C26.8515 25.8882 26.7698 26.1091 26.6427 26.2973C26.6049 26.3533 26.5689 26.4089 26.5222 26.458C26.5143 26.4663 26.5062 26.474 26.4981 26.4821C26.4743 26.5063 26.4432 26.5239 26.4178 26.5463C26.3825 26.5759 26.3518 26.6088 26.3133 26.6346C26.3084 26.6382 26.3023 26.6393 26.2973 26.6427C26.1633 26.7335 26.0107 26.7974 25.8475 26.8274C25.7784 26.8401 25.7111 26.8515 25.6386 26.8515H25.5904L22.6265 26.8515L18.1526 26.8515L18.1526 26.8516ZM3.99186 25.1969C3.33582 25.1969 2.8031 24.6642 2.8031 24.0082L2.80311 16.9478H5.38145C6.08127 16.9478 6.6425 17.4938 6.64251 18.1607L6.64251 21.3575L9.83932 21.3575C10.5062 21.3575 11.0522 21.9268 11.0522 22.6266V25.1969L3.99186 25.1969ZM16.9478 25.1969L16.9478 22.6266C16.9478 21.9268 17.4857 21.3575 18.1526 21.3575L21.3575 21.3575V18.1607C21.3575 17.4937 21.9268 16.9478 22.6266 16.9478L25.1969 16.9478L25.1969 24.0081C25.1969 24.6642 24.6642 25.1969 24.0081 25.1969L16.9478 25.1969ZM14 23.221C13.6116 23.221 13.2932 22.9026 13.2932 22.5142C13.2932 22.1257 13.6116 21.8154 14 21.8154C14.3884 21.8154 14.7068 22.1257 14.7068 22.5142C14.7069 22.9026 14.3884 23.221 14 23.221ZM14 21.0282C13.4915 21.0282 12.984 20.8315 12.5944 20.4418L7.55818 15.4056C6.77893 14.6264 6.77893 13.3736 7.55818 12.5944L12.5944 7.55814C13.3736 6.7789 14.6264 6.7789 15.4056 7.55814L20.4418 12.5943C21.2211 13.3736 21.2211 14.6264 20.4418 15.4056L15.4056 20.4418C15.016 20.8315 14.5085 21.0282 14 21.0282ZM12.7068 16.498L15.2932 16.498C15.9623 16.498 16.498 15.9623 16.498 15.2932L16.498 12.7068C16.498 12.0377 15.9623 11.502 15.2932 11.502L12.7068 11.502C12.0377 11.502 11.502 12.0377 11.502 12.7068L11.502 15.2932C11.502 15.9623 12.0377 16.498 12.7068 16.498ZM2.63443 15.486C1.81443 15.486 1.14848 14.82 1.14848 14C1.14848 13.18 1.81444 12.5141 2.63444 12.514C3.45444 12.514 4.1204 13.18 4.12039 14C4.12039 14.82 3.45445 15.486 2.63443 15.486ZM14 15.486C13.18 15.486 12.514 14.82 12.514 14C12.514 13.18 13.18 12.514 14 12.514C14.82 12.514 15.486 13.18 15.486 14C15.486 14.82 14.82 15.486 14 15.486ZM25.3656 15.4859C24.5456 15.4859 23.8796 14.82 23.8796 14C23.8796 13.18 24.5456 12.514 25.3656 12.514C26.1856 12.514 26.8515 13.18 26.8515 14C26.8515 14.82 26.1856 15.4859 25.3656 15.4859ZM5.47784 14.7068C5.08941 14.7068 4.77904 14.3884 4.77904 14C4.77905 13.6116 5.08942 13.2932 5.47784 13.2932C5.86626 13.2932 6.18467 13.6116 6.18468 14C6.18468 14.3884 5.86627 14.7068 5.47784 14.7068ZM22.5141 14.7068C22.1257 14.7068 21.8153 14.3884 21.8153 14C21.8153 13.6115 22.1257 13.2931 22.5141 13.2931C22.9026 13.2931 23.221 13.6115 23.221 14C23.221 14.3884 22.9026 14.7068 22.5141 14.7068ZM2.80312 11.0522L2.80313 3.99184C2.80313 3.3358 3.33586 2.80307 3.9919 2.80307L11.0522 2.80306V5.38142C11.0522 6.08124 10.5063 6.6425 9.83934 6.6425L6.64252 6.6425L6.64252 9.84735C6.64252 10.5143 6.08128 11.0522 5.38146 11.0522L2.80312 11.0522ZM22.6266 11.0522C21.9268 11.0522 21.3575 10.5142 21.3575 9.84732V6.64247L18.1527 6.64248C17.4857 6.64248 16.9478 6.08123 16.9478 5.38141L16.9478 2.80305L24.0081 2.80304C24.6642 2.80304 25.1969 3.33576 25.1969 3.99181L25.1969 11.0521L22.6266 11.0522ZM2.15251 11.0281C1.57626 10.916 1.14849 10.4309 1.14849 9.84736V5.38144L1.1485 2.40951V2.3613C1.1485 2.28887 1.15993 2.2215 1.17258 2.15246C1.20261 1.98922 1.26647 1.83665 1.35732 1.70266C1.38593 1.66045 1.41997 1.62057 1.45372 1.58218C1.47363 1.55876 1.48845 1.53194 1.50993 1.50988C1.52077 1.49924 1.53086 1.48798 1.54209 1.47777C1.59093 1.43092 1.6468 1.39518 1.70274 1.35728C1.891 1.2303 2.11187 1.14846 2.35336 1.14846H2.40958L5.38149 1.14846H9.83936C10.4307 1.14845 10.9232 1.58877 11.0281 2.17658L3.42967 2.17659C2.737 2.17659 2.17664 2.73689 2.17664 3.42962L2.17663 11.0281C2.16891 11.0268 2.16011 11.0294 2.15251 11.0281ZM25.8234 11.0281L25.8234 3.42958C25.8234 2.73686 25.2631 2.17656 24.5704 2.17656L16.9719 2.17657C17.0754 1.58876 17.5614 1.14845 18.1527 1.14845L22.6266 1.14844H25.5905H25.6387C25.7111 1.14844 25.7785 1.15982 25.8475 1.17252C26.0108 1.20255 26.1633 1.26654 26.2973 1.35725C26.3023 1.36075 26.3084 1.36198 26.3134 1.36527C26.3749 1.4083 26.4373 1.45607 26.4901 1.50985L26.4982 1.51787C26.5532 1.5749 26.599 1.63557 26.6427 1.70262C26.7336 1.83663 26.7975 1.98919 26.8275 2.15243C26.8402 2.22147 26.8516 2.28884 26.8516 2.36126V2.40948L26.8516 5.3814V9.84733C26.8516 10.4386 26.4112 10.9246 25.8234 11.0281ZM14 6.18465C13.6116 6.18465 13.2932 5.86623 13.2932 5.47781C13.2932 5.08938 13.6116 4.77901 14 4.77901C14.3884 4.77901 14.7068 5.08938 14.7068 5.47781C14.7068 5.86623 14.3884 6.18465 14 6.18465ZM14 4.12035C13.18 4.12035 12.5141 3.45441 12.5141 2.63441C12.5141 1.81441 13.18 1.14846 14 1.14845C14.82 1.14844 15.486 1.81439 15.486 2.6344C15.486 3.45441 14.82 4.12035 14 4.12035Z" fill="url(#paint0_linear_4578_11480)"/>
<defs>
<linearGradient id="paint0_linear_4578_11480" x1="14" y1="1.14844" x2="14" y2="26.8516" gradientUnits="userSpaceOnUse">
<stop stop-color="#FF8B45"/>
<stop offset="1" stop-color="#FF0094"/>
</linearGradient>
</defs>
</svg>
