<svg width="18" height="18" viewBox="0 0 18 18" fill="none" xmlns="http://www.w3.org/2000/svg">
<path d="M9.56968 14.9547C8.78978 15.6858 7.75607 16.085 6.68715 16.0678C5.61824 16.0506 4.59793 15.6183 3.84199 14.8624C3.08606 14.1064 2.65377 13.0861 2.63654 12.0172C2.61931 10.9483 3.0185 9.91457 3.74968 9.13466L10.3197 2.57216C10.7102 2.18467 11.2067 1.9213 11.7465 1.81517C12.2864 1.70905 12.8455 1.7649 13.3537 1.97571C13.8619 2.18652 14.2964 2.54288 14.6026 2.99997C14.9088 3.45706 15.0731 3.99449 15.0747 4.54466C15.0743 4.91053 15.0011 5.27266 14.8595 5.61C14.7179 5.94734 14.5106 6.25316 14.2497 6.50966L8.00218 12.7497C7.80685 12.9054 7.56119 12.984 7.31177 12.9706C7.06234 12.9572 6.8265 12.8527 6.64896 12.6771C6.47141 12.5014 6.36451 12.2666 6.34851 12.0174C6.33252 11.7681 6.40855 11.5216 6.56218 11.3247L12.8172 5.06966L11.7522 4.01216L5.49718 10.2672C5.04577 10.7438 4.79819 11.3778 4.80712 12.0342C4.81605 12.6906 5.08078 13.3177 5.54498 13.7819C6.00918 14.2461 6.6362 14.5108 7.29262 14.5197C7.94904 14.5286 8.58303 14.2811 9.05968 13.8297L15.3222 7.57466C16.1278 6.77006 16.5807 5.6784 16.5815 4.53982C16.5822 3.40124 16.1305 2.30901 15.3259 1.50341C14.5213 0.697818 13.4297 0.244845 12.2911 0.244141C11.1525 0.243438 10.0603 0.695063 9.25468 1.49966L2.68468 8.07716C1.66864 9.13797 1.10852 10.5545 1.12435 12.0233C1.14018 13.4922 1.73069 14.8963 2.76935 15.935C3.80801 16.9737 5.21219 17.5642 6.681 17.58C8.1498 17.5958 9.56638 17.0357 10.6272 16.0197L16.5672 10.0722L15.5097 8.99966L9.56968 14.9547Z" fill="white"/>
</svg>
