<svg width="24" height="24" viewBox="0 0 24 24" fill="none" xmlns="http://www.w3.org/2000/svg">
<path fill-rule="evenodd" clip-rule="evenodd" d="M12.3906 7.09854C12.972 6.46051 13.9071 6.1309 15.2986 6.05616V3.00781H22.0669V10.7604H15.2986V7.55869C14.1358 7.63186 13.6895 7.90017 13.4993 8.10885C13.2595 8.37196 13.2207 8.71785 13.1405 9.43256L13.1354 9.47854C13.0616 10.1349 12.9353 11.0687 12.0933 11.7642C12.0023 11.8393 11.905 11.91 11.8009 11.9764C11.935 12.058 12.058 12.1465 12.1707 12.2421C13.0002 12.9452 13.1006 13.8887 13.1612 14.5354C13.2304 15.2755 13.2654 15.6233 13.5094 15.8856C13.7019 16.0927 14.1522 16.3561 15.2986 16.4363V13.429H22.0669V21.0868H15.2986V17.9395C13.9191 17.857 12.9902 17.53 12.4109 16.9071C11.8017 16.252 11.7291 15.3951 11.6807 14.8236C11.6799 14.8139 11.679 14.8042 11.6782 14.7946C11.6747 14.7531 11.6713 14.7133 11.6677 14.6752C11.6063 14.0192 11.5238 13.66 11.2008 13.3862C10.888 13.1211 10.2302 12.8404 8.79856 12.7679V15.9711H2.03027V8.21851H8.79856V11.2269C10.1658 11.147 10.8169 10.8729 11.1381 10.6077C11.4789 10.3261 11.5721 9.95735 11.6447 9.31108C11.6505 9.2598 11.6561 9.20521 11.6619 9.14778C11.7194 8.58188 11.8049 7.74132 12.3906 7.09854ZM16.7986 4.50781V9.26044H20.5669V4.50781H16.7986ZM3.53027 9.71851V14.4711H7.29856V9.71851H3.53027ZM16.7986 19.5868V14.929H20.5669V19.5868H16.7986Z" fill="#C8C8C8"/>
</svg>
