<svg width="24" height="24" viewBox="0 0 24 24" fill="none" xmlns="http://www.w3.org/2000/svg">
<path fill-rule="evenodd" clip-rule="evenodd" d="M13.5264 13.6416C13.7033 13.6097 13.8827 13.5937 14.0625 13.5938C14.4405 13.5938 14.8022 13.6637 15.1354 13.7913L16.461 11.9062L16.5116 11.9349C16.0202 11.3858 15.7489 10.6744 15.75 9.9375C15.75 8.28066 17.0932 6.9375 18.75 6.9375C20.4068 6.9375 21.75 8.28066 21.75 9.9375C21.75 11.5943 20.4068 12.9375 18.75 12.9375C18.4058 12.9375 18.075 12.8795 17.767 12.7728L16.4255 14.7451C16.8392 15.2724 17.0636 15.9235 17.0625 16.5938C17.0625 18.2506 15.7193 19.5938 14.0625 19.5938C12.4057 19.5938 11.0625 18.2506 11.0625 16.5938C11.0625 15.6781 11.4728 14.8582 12.1194 14.3079L10.1728 10.4379C9.97202 10.4793 9.76752 10.5001 9.5625 10.5C9.30433 10.5002 9.04721 10.4671 8.7975 10.4016L7.41788 12.8325C7.98844 13.3786 8.34375 14.1478 8.34375 15C8.34375 16.6568 7.00059 18 5.34375 18C3.68691 18 2.34375 16.6568 2.34375 15C2.34375 13.3432 3.68691 12 5.34375 12C5.59266 12 5.83444 12.0303 6.06562 12.0874L7.45397 9.63394C6.90356 9.09028 6.5625 8.33503 6.5625 7.5C6.5625 5.84316 7.90566 4.5 9.5625 4.5C11.2193 4.5 12.5625 5.84316 12.5625 7.5C12.5625 8.39653 12.1692 9.20119 11.5459 9.75094L13.5264 13.6416ZM18.75 11.4375C19.5785 11.4375 20.25 10.766 20.25 9.9375C20.25 9.10903 19.5785 8.4375 18.75 8.4375C17.9215 8.4375 17.25 9.10903 17.25 9.9375C17.25 10.766 17.9215 11.4375 18.75 11.4375ZM5.34375 16.5C6.17222 16.5 6.84375 15.8285 6.84375 15C6.84375 14.1715 6.17222 13.5 5.34375 13.5C4.51528 13.5 3.84375 14.1715 3.84375 15C3.84375 15.8285 4.51528 16.5 5.34375 16.5ZM9.5625 9C10.391 9 11.0625 8.32847 11.0625 7.5C11.0625 6.67153 10.391 6 9.5625 6C8.73403 6 8.0625 6.67153 8.0625 7.5C8.0625 8.32847 8.73403 9 9.5625 9ZM14.0625 18.0938C14.891 18.0938 15.5625 17.4222 15.5625 16.5938C15.5625 15.7653 14.891 15.0938 14.0625 15.0938C13.234 15.0938 12.5625 15.7653 12.5625 16.5938C12.5625 17.4222 13.234 18.0938 14.0625 18.0938Z" fill="#C8C8C8"/>
<path d="M18.8501 11.5376C19.7338 11.5376 20.4502 10.8212 20.4502 9.9375C20.4502 9.0538 19.7338 8.33742 18.8501 8.33742C17.9664 8.33742 17.25 9.0538 17.25 9.9375C17.25 10.8212 17.9664 11.5376 18.8501 11.5376Z" fill="#7E7E7E"/>
<path d="M14.1626 18.1938C15.0463 18.1938 15.7627 17.4774 15.7627 16.5938C15.7627 15.7101 15.0463 14.9937 14.1626 14.9937C13.2789 14.9937 12.5625 15.7101 12.5625 16.5938C12.5625 17.4774 13.2789 18.1938 14.1626 18.1938Z" fill="#7E7E7E"/>
<path d="M9.46242 9.10008C10.3461 9.10008 11.0625 8.3837 11.0625 7.5C11.0625 6.6163 10.3461 5.89992 9.46242 5.89992C8.57872 5.89992 7.86234 6.6163 7.86234 7.5C7.86234 8.3837 8.57872 9.10008 9.46242 9.10008Z" fill="#7E7E7E"/>
<path d="M5.34375 16.5C6.22745 16.5 6.94383 15.7836 6.94383 14.8999C6.94383 14.0162 6.22745 13.2998 5.34375 13.2998C4.46005 13.2998 3.74367 14.0162 3.74367 14.8999C3.74367 15.7836 4.46005 16.5 5.34375 16.5Z" fill="#7E7E7E"/>
</svg>
