<svg width="24" height="24" viewBox="0 0 24 24" fill="none" xmlns="http://www.w3.org/2000/svg">
<path fill-rule="evenodd" clip-rule="evenodd" d="M12.1365 1.95312L17.4088 11.4793H6.8642L12.1365 1.95312ZM9.4088 9.97922H14.8642L12.1365 5.05077L9.4088 9.97922ZM2.75 13.252H11.25V21.752H2.75V13.252ZM4.25 14.752V20.252H9.75V14.752H4.25ZM14.25 17.502C14.25 15.9832 15.4812 14.752 17 14.752C18.5188 14.752 19.75 15.9832 19.75 17.502C19.75 19.0208 18.5188 20.252 17 20.252C15.4812 20.252 14.25 19.0208 14.25 17.502ZM17 13.252C14.6528 13.252 12.75 15.1548 12.75 17.502C12.75 19.8492 14.6528 21.752 17 21.752C19.3472 21.752 21.25 19.8492 21.25 17.502C21.25 15.1548 19.3472 13.252 17 13.252Z" fill="#C8C8C8"/>
</svg>
