<svg width="24" height="25" viewBox="0 0 24 25" fill="none" xmlns="http://www.w3.org/2000/svg">
<path d="M13.4099 12.4963L17.7099 8.20628C17.8982 8.01798 18.004 7.76258 18.004 7.49628C18.004 7.22998 17.8982 6.97458 17.7099 6.78628C17.5216 6.59798 17.2662 6.49219 16.9999 6.49219C16.7336 6.49219 16.4782 6.59798 16.2899 6.78628L11.9999 11.0863L7.70994 6.78628C7.52164 6.59798 7.26624 6.49219 6.99994 6.49219C6.73364 6.49219 6.47824 6.59798 6.28994 6.78628C6.10164 6.97458 5.99585 7.22998 5.99585 7.49628C5.99585 7.76258 6.10164 8.01798 6.28994 8.20628L10.5899 12.4963L6.28994 16.7863C6.19621 16.8792 6.12182 16.9898 6.07105 17.1117C6.02028 17.2336 5.99414 17.3643 5.99414 17.4963C5.99414 17.6283 6.02028 17.759 6.07105 17.8809C6.12182 18.0027 6.19621 18.1133 6.28994 18.2063C6.3829 18.3 6.4935 18.3744 6.61536 18.4252C6.73722 18.4759 6.86793 18.5021 6.99994 18.5021C7.13195 18.5021 7.26266 18.4759 7.38452 18.4252C7.50638 18.3744 7.61698 18.3 7.70994 18.2063L11.9999 13.9063L16.2899 18.2063C16.3829 18.3 16.4935 18.3744 16.6154 18.4252C16.7372 18.4759 16.8679 18.5021 16.9999 18.5021C17.132 18.5021 17.2627 18.4759 17.3845 18.4252C17.5064 18.3744 17.617 18.3 17.7099 18.2063C17.8037 18.1133 17.8781 18.0027 17.9288 17.8809C17.9796 17.759 18.0057 17.6283 18.0057 17.4963C18.0057 17.3643 17.9796 17.2336 17.9288 17.1117C17.8781 16.9898 17.8037 16.8792 17.7099 16.7863L13.4099 12.4963Z" fill="#A3A3C1"/>
</svg>
