<svg width="24" height="24" viewBox="0 0 24 24" fill="none" xmlns="http://www.w3.org/2000/svg">
<path fill-rule="evenodd" clip-rule="evenodd" d="M15.5355 16.9508L12 13.4153L8.46447 16.9508C8.07556 17.3397 7.43916 17.3397 7.05025 16.9508C6.66134 16.5619 6.66134 15.9255 7.05025 15.5366L10.5858 12.0011L7.05025 8.46552C6.66134 8.07661 6.66134 7.44022 7.05025 7.05131C7.43916 6.6624 8.07556 6.6624 8.46447 7.05131L12 10.5868L15.5355 7.05131C15.9244 6.6624 16.5608 6.6624 16.9497 7.05131C17.3387 7.44022 17.3387 8.07661 16.9497 8.46552L13.4142 12.0011L16.9497 15.5366C17.3387 15.9255 17.3387 16.5619 16.9497 16.9508C16.5608 17.3397 15.9244 17.3397 15.5355 16.9508Z" fill="white"/>
</svg>
