<svg width="25" height="25" viewBox="0 0 25 25" fill="none" xmlns="http://www.w3.org/2000/svg">
<g id="User Interface / Cancel">
<path id="Vector" d="M13.9099 12.4963L18.2099 8.20628C18.3982 8.01798 18.504 7.76258 18.504 7.49628C18.504 7.22998 18.3982 6.97458 18.2099 6.78628C18.0216 6.59798 17.7662 6.49219 17.4999 6.49219C17.2336 6.49219 16.9782 6.59798 16.7899 6.78628L12.4999 11.0863L8.20994 6.78628C8.02164 6.59798 7.76624 6.49219 7.49994 6.49219C7.23364 6.49219 6.97824 6.59798 6.78994 6.78628C6.60164 6.97458 6.49585 7.22998 6.49585 7.49628C6.49585 7.76258 6.60164 8.01798 6.78994 8.20628L11.0899 12.4963L6.78994 16.7863C6.69621 16.8792 6.62182 16.9898 6.57105 17.1117C6.52028 17.2336 6.49414 17.3643 6.49414 17.4963C6.49414 17.6283 6.52028 17.759 6.57105 17.8809C6.62182 18.0027 6.69621 18.1133 6.78994 18.2063C6.8829 18.3 6.9935 18.3744 7.11536 18.4252C7.23722 18.4759 7.36793 18.5021 7.49994 18.5021C7.63195 18.5021 7.76266 18.4759 7.88452 18.4252C8.00638 18.3744 8.11698 18.3 8.20994 18.2063L12.4999 13.9063L16.7899 18.2063C16.8829 18.3 16.9935 18.3744 17.1154 18.4252C17.2372 18.4759 17.3679 18.5021 17.4999 18.5021C17.632 18.5021 17.7627 18.4759 17.8845 18.4252C18.0064 18.3744 18.117 18.3 18.2099 18.2063C18.3037 18.1133 18.3781 18.0027 18.4288 17.8809C18.4796 17.759 18.5057 17.6283 18.5057 17.4963C18.5057 17.3643 18.4796 17.2336 18.4288 17.1117C18.3781 16.9898 18.3037 16.8792 18.2099 16.7863L13.9099 12.4963Z" fill="#A3A3C1"/>
</g>
</svg>
