<svg width="24" height="24" viewBox="0 0 24 24" fill="none" xmlns="http://www.w3.org/2000/svg">
<g clip-path="url(#clip0_4574_7087)">
<path d="M15 14C17.6887 14 19.8818 16.1223 19.9954 18.7831L20 19V20C20 21.0544 19.1841 21.9182 18.1493 21.9945L18 22H4C2.94564 22 2.08183 21.1841 2.00549 20.1493L2 20V19C2 16.3113 4.12231 14.1182 6.78311 14.0046L7 14H15ZM11 2C13.7614 2 16 4.23858 16 7C16 9.76142 13.7614 12 11 12C8.23858 12 6 9.76142 6 7C6 4.23858 8.23858 2 11 2Z" fill="#C8C8C8"/>
<path d="M22 14C22 13.4477 21.5523 13 21 13H20C19.4477 13 19 13.4477 19 14C19 14.5523 19.4477 15 20 15H21C21.5523 15 22 14.5523 22 14Z" fill="#C8C8C8"/>
<path d="M22 11C22 10.4477 21.5523 10 21 10H19C18.4477 10 18 10.4477 18 11C18 11.5523 18.4477 12 19 12H21C21.5523 12 22 11.5523 22 11Z" fill="#C8C8C8"/>
<path d="M22 8C22 7.44772 21.5523 7 21 7H18L17.8834 7.00673C17.386 7.06449 17 7.48717 17 8C17 8.55228 17.4477 9 18 9H21L21.1166 8.99327C21.614 8.93551 22 8.51283 22 8Z" fill="#C8C8C8"/>
</g>
<defs>
<clipPath id="clip0_4574_7087">
<rect width="24" height="24" fill="white"/>
</clipPath>
</defs>
</svg>
