<svg width="800" height="800" viewBox="0 0 800 800" fill="none" xmlns="http://www.w3.org/2000/svg">
<path fill-rule="evenodd" clip-rule="evenodd" d="M733.347 403.495C733.347 469.425 713.797 533.874 677.168 588.693C640.54 643.511 588.478 686.237 527.567 711.467C466.655 736.698 399.63 743.299 334.967 730.437C270.304 717.575 210.907 685.826 164.288 639.207C117.668 592.587 85.9202 533.191 73.0579 468.528C60.1956 403.864 66.797 336.839 92.0273 275.928C117.258 215.017 159.984 162.955 214.802 126.327C269.621 89.6978 334.07 70.1473 400 70.1473C443.776 70.1473 487.123 78.7696 527.567 95.5219C568.01 112.274 604.758 136.828 635.712 167.783C666.666 198.737 691.221 235.485 707.973 275.928C724.725 316.372 733.347 359.719 733.347 403.495ZM615.032 403.495C615.032 446.014 602.424 487.578 578.802 522.932C555.181 558.286 521.607 585.842 482.325 602.115C443.043 618.388 399.818 622.648 358.115 614.356C316.413 606.064 278.105 585.593 248.037 555.53C217.968 525.467 197.489 487.164 189.189 445.463C180.889 403.762 185.14 360.536 201.406 321.251C217.671 281.966 245.221 248.386 280.57 224.758C315.919 201.13 357.481 188.514 400 188.505C457.019 188.505 511.702 211.156 552.021 251.474C592.339 291.793 614.99 346.476 614.99 403.495H615.032ZM581.684 403.495C581.684 439.428 571.029 474.555 551.065 504.433C531.101 534.311 502.726 557.598 469.528 571.349C436.329 585.1 399.799 588.698 364.555 581.688C329.312 574.678 296.939 557.374 271.53 531.965C246.121 506.556 228.817 474.183 221.807 438.94C214.797 403.696 218.395 367.166 232.146 333.967C245.897 300.769 269.184 272.394 299.062 252.43C328.94 232.466 364.066 221.811 400 221.811C423.859 221.811 447.485 226.51 469.528 235.64C491.571 244.771 511.599 258.154 528.47 275.025C545.341 291.896 558.724 311.924 567.854 333.967C576.985 356.01 581.684 379.636 581.684 403.495ZM490.611 361.726C493.203 359.119 494.861 355.729 495.327 352.082C495.793 348.435 495.04 344.736 493.186 341.561C491.332 338.386 488.481 335.913 485.076 334.527C481.67 333.14 477.902 332.918 474.358 333.895C469.299 335.996 464.873 339.377 461.516 343.705L444.084 361.137L416.758 388.421V282.737C417.427 277.494 416.61 272.169 414.4 267.368C412.482 264.36 409.655 262.04 406.33 260.745C403.005 259.451 399.354 259.248 395.906 260.168C392.458 261.087 389.393 263.081 387.154 265.859C384.915 268.637 383.618 272.057 383.453 275.621C383.074 285.389 383.453 295.2 383.453 304.968V428.463C383.447 431.892 384.483 435.241 386.422 438.068C388.362 440.895 391.115 443.067 394.316 444.295C406.779 448.926 415.158 437.179 422.821 429.558L464.842 387.537L490.611 361.726Z" fill="black"/>
</svg>
