<svg width="32" height="32" viewBox="0 0 32 32" fill="none" xmlns="http://www.w3.org/2000/svg">
<path d="M9.86623 18.9338C10.4535 18.4933 11.2858 18.6106 11.7287 19.1949L11.7349 19.2027C11.7428 19.2127 11.7579 19.2315 11.78 19.2578C11.8242 19.3105 11.8958 19.3926 11.9935 19.4946C12.1899 19.6995 12.485 19.9775 12.8671 20.2554C13.6366 20.815 14.7002 21.3338 15.9995 21.3338C17.2989 21.3338 18.3626 20.815 19.1319 20.2554C19.5142 19.9775 19.8093 19.6995 20.0057 19.4946C20.1033 19.3926 20.175 19.3105 20.2191 19.2578C20.2413 19.2315 20.2563 19.2127 20.2642 19.2027L20.2705 19.1949C20.7133 18.6106 21.5457 18.4933 22.1329 18.9338C22.7219 19.3755 22.8414 20.2113 22.3995 20.8005L22.3982 20.8022C22.2554 20.9917 22.0949 21.1686 21.931 21.3397C21.6482 21.6347 21.235 22.0233 20.7005 22.4121C19.6366 23.1858 18.0335 24.0005 15.9995 24.0005C13.9655 24.0005 12.3626 23.1858 11.2987 22.4121C10.7641 22.0233 10.3509 21.6347 10.0682 21.3397C9.90477 21.1691 9.74519 20.9927 9.60245 20.8042C9.16439 20.2222 9.28259 19.3715 9.86623 18.9338Z" fill="white"/>
<path d="M14 12C14 13.1046 13.1046 14 12 14C10.8954 14 10 13.1046 10 12C10 10.8954 10.8954 10 12 10C13.1046 10 14 10.8954 14 12Z" fill="white"/>
<path d="M20 14C21.1045 14 22 13.1046 22 12C22 10.8954 21.1045 10 20 10C18.8955 10 18 10.8954 18 12C18 13.1046 18.8955 14 20 14Z" fill="white"/>
<path fill-rule="evenodd" clip-rule="evenodd" d="M16.0007 1.33301C7.90048 1.33301 1.33398 7.8995 1.33398 15.9997C1.33398 24.0998 7.90048 30.6663 16.0007 30.6663C24.1008 30.6663 30.6673 24.0998 30.6673 15.9997C30.6673 7.8995 24.1008 1.33301 16.0007 1.33301ZM4.00065 15.9997C4.00065 9.37226 9.37324 3.99967 16.0007 3.99967C22.6281 3.99967 28.0006 9.37226 28.0006 15.9997C28.0006 22.6271 22.6281 27.9997 16.0007 27.9997C9.37324 27.9997 4.00065 22.6271 4.00065 15.9997Z" fill="white"/>
</svg>
