<svg width="32" height="32" viewBox="0 0 32 32" fill="none" xmlns="http://www.w3.org/2000/svg">
<g clip-path="url(#clip0_4510_15030)">
<path d="M22.3906 18.1295C22.6459 17.4474 22.7754 16.7246 22.7728 15.9962C22.7728 14.379 22.1304 12.828 20.9868 11.6844C19.8433 10.5409 18.2923 9.89844 16.675 9.89844C15.9556 9.89928 15.2422 10.0287 14.5684 10.2807L15.9995 11.7562C16.217 11.7214 16.4369 11.7036 16.6572 11.7029C17.8007 11.7005 18.8987 12.1507 19.7115 12.9551C20.5242 13.7595 20.9856 14.8528 20.995 15.9962C20.9943 16.2165 20.9765 16.4364 20.9417 16.654L22.3906 18.1295Z" fill="#2B7FFF"/>
<path d="M30.4798 15.5842C27.4842 10.0464 22.2309 6.69531 16.4175 6.69531C14.8347 6.69903 13.2626 6.95406 11.7598 7.45087L13.1909 8.89087C14.245 8.61845 15.3288 8.47811 16.4175 8.47309C21.422 8.47309 25.9731 11.2642 28.6842 15.9664C27.6897 17.711 26.3713 19.2496 24.7998 20.4998L26.062 21.762C27.8807 20.2947 29.3912 18.4821 30.5064 16.4286L30.7375 16.002L30.4798 15.5842Z" fill="#2B7FFF"/>
<path d="M4.32857 5.13694L8.29301 9.10139C5.78716 10.7148 3.73915 12.9465 2.34635 15.5814L2.11523 15.9992L2.34635 16.4258C5.3419 21.9636 10.5952 25.3147 16.4086 25.3147C18.6776 25.3143 20.9171 24.8007 22.9597 23.8125L27.4041 28.2569L28.9597 26.9236L5.84857 3.8125L4.32857 5.13694ZM12.9952 13.8036L18.9063 19.7147C18.2385 20.1281 17.4696 20.3496 16.6841 20.3547C16.1134 20.3547 15.5483 20.2419 15.0213 20.0227C14.4944 19.8035 14.016 19.4822 13.6137 19.0774C13.2113 18.6726 12.893 18.1922 12.6771 17.664C12.4611 17.1357 12.3517 16.5699 12.3552 15.9992C12.3652 15.2228 12.5865 14.4638 12.9952 13.8036ZM11.7063 12.5147C10.8747 13.6875 10.4849 15.1168 10.606 16.5494C10.7271 17.982 11.3512 19.3256 12.3678 20.3422C13.3844 21.3588 14.728 21.9829 16.1606 22.104C17.5932 22.225 19.0224 21.8352 20.1952 21.0036L21.6175 22.4258C19.971 23.1296 18.1991 23.4925 16.4086 23.4925C11.4041 23.4925 6.85301 20.7014 4.1419 15.9992C5.44297 13.6954 7.31677 11.7665 9.5819 10.3992L11.7063 12.5147Z" fill="#2B7FFF"/>
</g>
<defs>
<clipPath id="clip0_4510_15030">
<rect width="32" height="32" fill="white"/>
</clipPath>
</defs>
</svg>
