<svg width="32" height="32" viewBox="0 0 32 32" fill="none" xmlns="http://www.w3.org/2000/svg">
<g clip-path="url(#clip0_4510_15026)">
<path d="M29.8849 15.5842C26.8893 10.0464 21.636 6.69531 15.8226 6.69531C10.0093 6.69531 4.74707 10.0464 1.77819 15.5842L1.5293 16.002L1.76041 16.4286C4.75596 21.9664 10.0093 25.3175 15.8226 25.3175C21.636 25.3175 26.8982 22.0109 29.8849 16.4286L30.116 16.002L29.8849 15.5842ZM15.8226 23.4953C10.8182 23.4953 6.22263 20.7042 3.55596 16.002C6.22263 11.2998 10.8182 8.50865 15.8226 8.50865C20.8271 8.50865 25.3693 11.3086 28.0804 16.002C25.3693 20.7042 20.8182 23.4953 15.8226 23.4953Z" fill="#2B7FFF"/>
<path d="M16.0806 9.92985C14.8754 9.93865 13.6998 10.3044 12.7023 10.9809C11.7049 11.6575 10.9302 12.6144 10.4763 13.731C10.0224 14.8475 9.90954 16.0735 10.152 17.2541C10.3944 18.4347 10.9813 19.517 11.8385 20.3643C12.6957 21.2115 13.7848 21.7858 14.9681 22.0145C16.1515 22.2432 17.3761 22.116 18.4873 21.6491C19.5984 21.1823 20.5463 20.3965 21.2112 19.3913C21.876 18.386 22.2281 17.2062 22.2228 16.001C22.2194 15.1987 22.0576 14.405 21.7468 13.6653C21.436 12.9257 20.9823 12.2546 20.4117 11.6907C19.8411 11.1267 19.1648 10.6808 18.4216 10.3787C17.6784 10.0765 16.8829 9.92399 16.0806 9.92985ZM16.0806 20.3476C15.2293 20.3389 14.3995 20.0787 13.6956 19.5999C12.9916 19.1211 12.4448 18.4449 12.1239 17.6564C11.8029 16.8678 11.7221 16.002 11.8917 15.1677C12.0612 14.3333 12.4734 13.5677 13.0767 12.9669C13.6799 12.3661 14.4472 11.957 15.2822 11.7909C16.1173 11.6248 16.9827 11.7091 17.77 12.0332C18.5572 12.3574 19.2311 12.907 19.7071 13.6129C20.183 14.3188 20.4398 15.1496 20.4451 16.001C20.4474 16.5739 20.336 17.1417 20.1173 17.6713C19.8986 18.2009 19.5769 18.6818 19.1709 19.0861C18.765 19.4904 18.2827 19.8102 17.7523 20.0267C17.2218 20.2433 16.6536 20.3523 16.0806 20.3476Z" fill="#2B7FFF"/>
</g>
<defs>
<clipPath id="clip0_4510_15026">
<rect width="32" height="32" fill="white"/>
</clipPath>
</defs>
</svg>
