<svg width="800" height="800" viewBox="0 0 800 800" fill="none" xmlns="http://www.w3.org/2000/svg">
<g clip-path="url(#clip0_5590_7943)">
<path d="M740.991 445.125C777.381 408.769 800.024 358.166 800 302.648C800.024 247.133 777.381 196.528 740.991 160.183C704.645 123.78 654.053 101.139 598.514 101.173C542.999 101.139 492.383 123.781 456.061 160.183C419.649 196.528 397.006 247.133 397.03 302.648C397.006 358.164 419.649 408.767 456.061 445.125C486.167 475.277 526.075 495.933 570.452 502.137V584.912H479.067V641.075H570.452V729.772H626.603V641.075H717.988V584.912H626.603V502.137C670.978 495.933 710.885 475.277 740.991 445.125ZM598.514 431.126C580.681 431.114 563.87 427.531 548.511 421.042C525.505 411.32 505.813 394.973 491.952 374.453C478.113 353.911 470.058 329.384 470.058 302.648C470.058 284.805 473.642 268.005 480.131 252.658C489.841 229.641 506.177 209.961 526.709 196.098C547.264 182.248 571.788 174.194 598.514 174.17C616.347 174.183 633.158 177.767 648.517 184.267C671.524 193.977 691.216 210.323 705.077 230.844C718.916 251.4 726.97 275.923 726.992 302.65C726.97 320.494 723.386 337.294 716.897 352.642C707.188 375.658 690.83 395.35 670.319 409.202C649.764 423.061 625.263 431.105 598.514 431.126Z" fill="white"/>
<path d="M229.55 316.101V177.742L285.316 233.497L325.041 193.794L201.486 70.228L77.9078 193.794L117.611 233.497L173.398 177.731V316.101C129.022 322.317 89.1156 342.975 59.0094 373.136C22.5969 409.483 -0.0218591 460.075 1.58525e-05 515.592C-0.0218591 571.131 22.5969 621.723 59.0094 658.067C95.3547 694.481 145.947 717.111 201.486 717.089C257.002 717.111 307.595 694.481 343.939 658.067C380.352 621.722 402.97 571.13 402.97 515.592C402.97 460.076 380.352 409.483 343.939 373.137C313.834 342.976 273.927 322.317 229.55 316.101ZM319.869 565.595C310.136 588.611 293.802 608.292 273.291 622.155C252.738 636.017 228.213 644.072 201.486 644.072C183.631 644.072 166.842 640.487 151.483 633.998C128.478 624.266 108.784 607.93 94.9235 587.409C81.061 566.855 73.0078 542.341 73.0078 515.594C73.0078 497.762 76.5922 480.962 83.0797 465.614C92.8125 442.609 109.148 422.917 129.68 409.055C150.211 395.205 174.736 387.162 201.484 387.139C219.317 387.139 236.105 390.723 251.488 397.223C274.47 406.945 294.163 423.28 308.025 443.8C321.886 464.356 329.941 488.869 329.941 515.594C329.942 533.445 326.356 550.258 319.869 565.595Z" fill="white"/>
</g>
<defs>
<clipPath id="clip0_5590_7943">
<rect width="800" height="800" fill="white"/>
</clipPath>
</defs>
</svg>
