<svg width="24" height="24" viewBox="0 0 24 24" fill="none" xmlns="http://www.w3.org/2000/svg">
<path d="M9 20.9987V13.5987C9 13.0387 9 12.7586 9.10899 12.5447C9.20487 12.3566 9.35785 12.2036 9.54601 12.1077C9.75992 11.9987 10.0399 11.9987 10.6 11.9987H13.4C13.9601 11.9987 14.2401 11.9987 14.454 12.1077C14.6422 12.2036 14.7951 12.3566 14.891 12.5447C15 12.7586 15 13.0387 15 13.5987V20.9987M11.0177 2.76278L4.23539 8.03791C3.78202 8.39053 3.55534 8.56684 3.39203 8.78764C3.24737 8.98323 3.1396 9.20357 3.07403 9.43784C3 9.7023 3 9.98948 3 10.5638V17.7987C3 18.9188 3 19.4789 3.21799 19.9067C3.40973 20.283 3.71569 20.589 4.09202 20.7807C4.51984 20.9987 5.07989 20.9987 6.2 20.9987H17.8C18.9201 20.9987 19.4802 20.9987 19.908 20.7807C20.2843 20.589 20.5903 20.283 20.782 19.9067C21 19.4789 21 18.9188 21 17.7987V10.5638C21 9.98948 21 9.7023 20.926 9.43784C20.8604 9.20357 20.7526 8.98323 20.608 8.78764C20.4447 8.56684 20.218 8.39053 19.7646 8.03791L12.9823 2.76278C12.631 2.48953 12.4553 2.3529 12.2613 2.30038C12.0902 2.25404 11.9098 2.25404 11.7387 2.30038C11.5447 2.3529 11.369 2.48953 11.0177 2.76278Z" stroke="#C8C8C8" stroke-width="2" stroke-linecap="round" stroke-linejoin="round"/>
</svg>
