<svg width="800" height="800" viewBox="0 0 800 800" fill="none" xmlns="http://www.w3.org/2000/svg">
<path d="M720 711H80C58.8197 710.882 38.5413 702.486 23.5639 687.631C8.58697 672.779 0.120229 652.67 0 631.667V178.333C0.120229 157.329 8.58697 137.22 23.5639 122.368C38.5413 107.515 58.8197 99.1192 80 99H720C741.179 99.1192 761.458 107.515 776.434 122.368C791.415 137.22 799.881 157.329 800 178.333V631.667C799.881 652.67 791.415 672.779 776.434 687.631C761.458 702.486 741.179 710.882 720 711ZM80 167C76.9691 167 74.0622 168.194 71.9186 170.319C69.7755 172.445 68.5714 175.328 68.5714 178.333V631.667C68.5714 634.672 69.7755 637.555 71.9186 639.682C74.0622 641.808 76.9691 643 80 643H720C723.031 643 725.938 641.808 728.082 639.682C730.226 637.555 731.429 634.672 731.429 631.667V178.333C731.429 175.328 730.226 172.445 728.082 170.319C725.938 168.194 723.031 167 720 167H80Z" fill="white"/>
<path d="M300 391.667C286.815 391.667 273.925 387.757 262.962 380.43C251.999 373.107 243.454 362.693 238.408 350.513C233.362 338.33 232.042 324.926 234.614 311.994C237.187 299.062 243.536 287.183 252.86 277.86C262.183 268.536 274.062 262.187 286.994 259.614C299.926 257.042 313.331 258.362 325.512 263.408C337.693 268.454 348.107 276.999 355.43 287.962C362.757 298.925 366.667 311.815 366.667 325C366.667 342.68 359.643 359.637 347.14 372.14C334.637 384.643 317.681 391.667 300 391.667ZM300.285 308.618C296.989 308.618 293.766 309.596 291.026 311.427C288.285 313.259 286.149 315.862 284.887 318.907C283.626 321.952 283.296 325.304 283.939 328.537C284.582 331.77 286.169 334.738 288.5 337.072C290.831 339.402 293.8 340.988 297.034 341.632C300.267 342.275 303.618 341.945 306.663 340.682C309.709 339.422 312.312 337.285 314.143 334.545C315.974 331.804 316.952 328.581 316.952 325.285C316.952 320.865 315.196 316.626 312.07 313.5C308.945 310.374 304.705 308.618 300.285 308.618Z" fill="white"/>
<path d="M400 525C393.397 524.913 387.087 522.253 382.417 517.583C377.747 512.913 375.087 506.603 375 500C375 477.333 369.333 458.333 300 458.333C230.667 458.333 225 477.333 225 500C225 506.63 222.366 512.99 217.678 517.677C212.989 522.367 206.63 525 200 525C193.37 525 187.011 522.367 182.322 517.677C177.634 512.99 175 506.63 175 500C175 408.333 269 408.333 300 408.333C331 408.333 425 408.333 425 500C424.913 506.603 422.253 512.913 417.583 517.583C412.913 522.253 406.603 524.913 400 525Z" fill="white"/>
<path d="M616 358.333H516C509.37 358.333 503.01 355.7 498.323 351.01C493.633 346.323 491 339.963 491 333.333C491 326.703 493.633 320.344 498.323 315.656C503.01 310.968 509.37 308.333 516 308.333H616C622.63 308.333 628.99 310.968 633.677 315.656C638.367 320.344 641 326.703 641 333.333C641 339.963 638.367 346.323 633.677 351.01C628.99 355.7 622.63 358.333 616 358.333Z" fill="white"/>
<path d="M582.667 458.333H516C509.37 458.333 503.01 455.7 498.323 451.01C493.633 446.323 491 439.963 491 433.333C491 426.703 493.633 420.343 498.323 415.657C503.01 410.967 509.37 408.333 516 408.333H582.667C589.297 408.333 595.657 410.967 600.343 415.657C605.033 420.343 607.667 426.703 607.667 433.333C607.667 439.963 605.033 446.323 600.343 451.01C595.657 455.7 589.297 458.333 582.667 458.333Z" fill="white"/>
</svg>
