<svg width="800" height="800" viewBox="0 0 800 800" fill="none" xmlns="http://www.w3.org/2000/svg">
<g clip-path="url(#clip0_5588_7936)">
<path d="M628.571 0H171.429C76.7512 0 0 76.7512 0 171.429V628.571C0 723.249 76.7512 800 171.429 800H628.571C723.249 800 800 723.249 800 628.571V171.429C800 76.7512 723.249 0 628.571 0Z" fill="url(#paint0_radial_5588_7936)"/>
<path d="M628.571 0H171.429C76.7512 0 0 76.7512 0 171.429V628.571C0 723.249 76.7512 800 171.429 800H628.571C723.249 800 800 723.249 800 628.571V171.429C800 76.7512 723.249 0 628.571 0Z" fill="url(#paint1_radial_5588_7936)"/>
<path d="M628.571 0H171.429C76.7512 0 0 76.7512 0 171.429V628.571C0 723.249 76.7512 800 171.429 800H628.571C723.249 800 800 723.249 800 628.571V171.429C800 76.7512 723.249 0 628.571 0Z" fill="url(#paint2_radial_5588_7936)"/>
<path d="M599 242.5C599 266.524 579.971 286 556.5 286C533.029 286 514 266.524 514 242.5C514 218.476 533.029 199 556.5 199C579.971 199 599 218.476 599 242.5Z" fill="white"/>
<path fill-rule="evenodd" clip-rule="evenodd" d="M400 543C478.976 543 543 478.976 543 400C543 321.024 478.976 257 400 257C321.024 257 257 321.024 257 400C257 478.976 321.024 543 400 543ZM400 485.8C447.387 485.8 485.8 447.387 485.8 400C485.8 352.613 447.387 314.2 400 314.2C352.613 314.2 314.2 352.613 314.2 400C314.2 447.387 352.613 485.8 400 485.8Z" fill="white"/>
<path fill-rule="evenodd" clip-rule="evenodd" d="M114 388.56C114 292.455 114 244.402 132.703 207.695C149.155 175.406 175.406 149.155 207.695 132.703C244.402 114 292.455 114 388.56 114H411.44C507.545 114 555.598 114 592.304 132.703C624.593 149.155 650.845 175.406 667.296 207.695C686 244.402 686 292.455 686 388.56V411.44C686 507.545 686 555.598 667.296 592.304C650.845 624.593 624.593 650.845 592.304 667.296C555.598 686 507.545 686 411.44 686H388.56C292.455 686 244.402 686 207.695 667.296C175.406 650.845 149.155 624.593 132.703 592.304C114 555.598 114 507.545 114 411.44V388.56ZM388.56 171.2H411.44C460.438 171.2 493.742 171.245 519.488 173.348C544.567 175.397 557.392 179.11 566.338 183.669C587.862 194.637 605.362 212.138 616.33 233.662C620.889 242.608 624.604 255.433 626.652 280.512C628.754 306.258 628.8 339.562 628.8 388.56V411.44C628.8 460.438 628.754 493.742 626.652 519.488C624.604 544.567 620.889 557.392 616.33 566.338C605.362 587.862 587.862 605.362 566.338 616.33C557.392 620.889 544.567 624.604 519.488 626.652C493.742 628.754 460.438 628.8 411.44 628.8H388.56C339.562 628.8 306.258 628.754 280.512 626.652C255.433 624.604 242.608 620.889 233.662 616.33C212.138 605.362 194.637 587.862 183.669 566.338C179.11 557.392 175.397 544.567 173.348 519.488C171.245 493.742 171.2 460.438 171.2 411.44V388.56C171.2 339.562 171.245 306.258 173.348 280.512C175.397 255.433 179.11 242.608 183.669 233.662C194.637 212.138 212.138 194.637 233.662 183.669C242.608 179.11 255.433 175.397 280.512 173.348C306.258 171.245 339.562 171.2 388.56 171.2Z" fill="white"/>
</g>
<defs>
<radialGradient id="paint0_radial_5588_7936" cx="0" cy="0" r="1" gradientUnits="userSpaceOnUse" gradientTransform="translate(285.714 600) rotate(-55.3758) scale(729.131)">
<stop stop-color="#B13589"/>
<stop offset="0.79309" stop-color="#C62F94"/>
<stop offset="1" stop-color="#8A3AC8"/>
</radialGradient>
<radialGradient id="paint1_radial_5588_7936" cx="0" cy="0" r="1" gradientUnits="userSpaceOnUse" gradientTransform="translate(257.143 828.571) rotate(-65.1363) scale(645.549)">
<stop stop-color="#E0E8B7"/>
<stop offset="0.444662" stop-color="#FB8A2E"/>
<stop offset="0.71474" stop-color="#E2425C"/>
<stop offset="1" stop-color="#E2425C" stop-opacity="0"/>
</radialGradient>
<radialGradient id="paint2_radial_5588_7936" cx="0" cy="0" r="1" gradientUnits="userSpaceOnUse" gradientTransform="translate(-42.8571 28.5714) rotate(-8.1301) scale(1111.17 237.667)">
<stop offset="0.156701" stop-color="#406ADC"/>
<stop offset="0.467799" stop-color="#6A45BE"/>
<stop offset="1" stop-color="#6A45BE" stop-opacity="0"/>
</radialGradient>
<clipPath id="clip0_5588_7936">
<rect width="800" height="800" fill="white"/>
</clipPath>
</defs>
</svg>
