<svg width="24" height="25" viewBox="0 0 24 25" fill="none" xmlns="http://www.w3.org/2000/svg">
<g clip-path="url(#clip0_5146_146)">
<path d="M12 22.5C6.477 22.5 2 18.023 2 12.5C2 6.977 6.477 2.5 12 2.5C13.5527 2.49884 15.0842 2.85978 16.4729 3.55414C17.8617 4.24851 19.0693 5.25718 20 6.5H17.29C16.1352 5.48176 14.7112 4.81836 13.1887 4.5894C11.6663 4.36044 10.1101 4.57566 8.70689 5.20922C7.30371 5.84277 6.11315 6.86776 5.27807 8.16119C4.44299 9.45462 3.99887 10.9615 3.999 12.5011C3.99913 14.0407 4.4435 15.5475 5.27879 16.8408C6.11409 18.1341 7.30482 19.1589 8.7081 19.7922C10.1114 20.4255 11.6676 20.6405 13.19 20.4113C14.7125 20.1821 16.1364 19.5184 17.291 18.5H20.001C19.0702 19.743 17.8624 20.7517 16.4735 21.4461C15.0846 22.1405 13.5528 22.5013 12 22.5ZM19 16.5V13.5H11V11.5H19V8.5L24 12.5L19 16.5Z" fill="#C8C8C8"/>
</g>
<defs>
<clipPath id="clip0_5146_146">
<rect width="24" height="24" fill="white" transform="translate(0 0.5)"/>
</clipPath>
</defs>
</svg>
