<svg width="800" height="800" viewBox="0 0 800 800" fill="none" xmlns="http://www.w3.org/2000/svg">
<path d="M365.6 625.633C516.5 603.566 633.333 481.133 633.333 331.267C633.356 309.818 630.941 288.436 626.133 267.533C690.6 305.933 733.333 372.933 733.333 449.167C733.287 491.012 720.331 531.823 696.233 566.033C698.233 597.667 709.433 625.4 729.9 649.267C731.763 651.419 732.943 654.076 733.289 656.901C733.636 659.726 733.134 662.591 731.847 665.129C730.559 667.668 728.546 669.765 726.062 671.155C723.578 672.545 720.737 673.164 717.9 672.933C672.333 669.233 635.067 658.733 606.1 641.433C572.913 657.043 536.675 665.093 500 665C452.327 665.215 405.624 651.535 365.6 625.633Z" fill="black"/>
<path d="M254.166 555.233C274.166 559.967 295.1 562.5 316.666 562.5C454.733 562.5 566.666 458.967 566.666 331.233C566.666 203.567 454.733 100 316.666 100C178.6 100 66.6665 203.533 66.6665 331.267C66.6665 396.133 95.5332 454.767 142.067 496.767C138.125 525.057 126.02 551.584 107.233 573.1C105.233 575.403 103.965 578.251 103.592 581.279C103.219 584.307 103.757 587.378 105.139 590.098C106.52 592.818 108.682 595.064 111.347 596.549C114.012 598.034 117.06 598.69 120.1 598.433C176.766 593.833 221.466 579.433 254.166 555.233Z" fill="black"/>
</svg>
