<svg width="24" height="24" viewBox="0 0 24 24" fill="none" xmlns="http://www.w3.org/2000/svg">
<path d="M20 4H4C2.89543 4 2 4.89543 2 6V18C2 19.1046 2.89543 20 4 20H20C21.1046 20 22 19.1046 22 18V6C22 4.89543 21.1046 4 20 4Z" fill="#C8C8C8"/>
<path d="M22 10H2V8H22V10ZM18 15H14C13.7348 15 13.4804 15.1054 13.2929 15.2929C13.1054 15.4804 13 15.7348 13 16C13 16.2652 13.1054 16.5196 13.2929 16.7071C13.4804 16.8946 13.7348 17 14 17H18C18.2652 17 18.5196 16.8946 18.7071 16.7071C18.8946 16.5196 19 16.2652 19 16C19 15.7348 18.8946 15.4804 18.7071 15.2929C18.5196 15.1054 18.2652 15 18 15Z" fill="#7E7E7E"/>
</svg>
