<svg width="24" height="24" viewBox="0 0 24 24" fill="none" xmlns="http://www.w3.org/2000/svg">
<path d="M15.2 6.40305C15.2 4.63593 13.7672 3.20312 12.0001 3.20312C10.233 3.20312 8.80018 4.63569 8.80018 6.40305C8.80018 7.30185 9.17362 8.11185 9.7705 8.69313L7.25098 13.1014L8.6413 13.893L11.1644 9.47888C11.4323 9.5516 11.7087 9.60321 12.0001 9.60321C13.7672 9.60321 15.2 8.17017 15.2 6.40305Z" fill="#C8C8C8"/>
<path d="M2.40039 17.5984C2.40039 19.3652 3.83343 20.7985 5.60031 20.7985C7.08951 20.7985 8.33007 19.7756 8.68671 18.3985H13.672V16.7984H8.68671C8.33007 15.4211 7.08951 14.3984 5.60031 14.3984C3.83343 14.3984 2.40039 15.8312 2.40039 17.5984Z" fill="#C8C8C8"/>
<path d="M16.1699 15.3095C15.5735 15.8907 15.1996 16.7003 15.1996 17.5993C15.1996 19.3662 16.6329 20.7995 18.3998 20.7995C20.1666 20.7995 21.5997 19.3662 21.5997 17.5993C21.5997 15.8322 20.1666 14.3994 18.3998 14.3994C18.1082 14.3994 17.8317 14.451 17.5638 14.5237L15.0412 10.1094L13.6504 10.9009L16.1699 15.3095Z" fill="#C8C8C8"/>
<path d="M12.0005 7.99704C12.8842 7.99704 13.6006 7.28065 13.6006 6.39696C13.6006 5.51326 12.8842 4.79688 12.0005 4.79688C11.1168 4.79688 10.4004 5.51326 10.4004 6.39696C10.4004 7.28065 11.1168 7.99704 12.0005 7.99704Z" fill="#7E7E7E"/>
<path d="M5.60008 19.2002C6.48378 19.2002 7.20016 18.4838 7.20016 17.6001C7.20016 16.7164 6.48378 16 5.60008 16C4.71638 16 4 16.7164 4 17.6001C4 18.4838 4.71638 19.2002 5.60008 19.2002Z" fill="#7E7E7E"/>
<path d="M18.3999 19.2002C19.2836 19.2002 20 18.4838 20 17.6001C20 16.7164 19.2836 16 18.3999 16C17.5162 16 16.7998 16.7164 16.7998 17.6001C16.7998 18.4838 17.5162 19.2002 18.3999 19.2002Z" fill="#7E7E7E"/>
</svg>
