<svg width="800" height="800" viewBox="0 0 800 800" fill="none" xmlns="http://www.w3.org/2000/svg">
<path d="M742.679 557.321C747.367 562.01 750.001 568.369 750.001 575C750.001 581.631 747.367 587.99 742.679 592.679L667.679 667.679C664.182 671.175 659.727 673.555 654.878 674.519C650.028 675.484 645.002 674.988 640.434 673.096C635.866 671.204 631.961 668 629.214 663.889C626.467 659.778 625 654.944 625 650V599.956C589.691 599.465 554.992 590.687 523.698 574.328C492.404 557.97 465.39 534.489 444.833 505.777L314.481 323.282C298.27 300.636 276.898 282.177 252.134 269.433C227.37 256.689 199.927 250.028 172.076 250H100C93.3696 250 87.0107 247.366 82.3223 242.678C77.6339 237.989 75 231.63 75 225C75 218.37 77.6339 212.011 82.3223 207.322C87.0107 202.634 93.3696 200 100 200H172.076C207.884 200.036 243.168 208.602 275.007 224.987C306.847 241.372 334.325 265.106 355.167 294.223L485.519 476.718C501.447 498.953 522.357 517.153 546.576 529.862C570.796 542.572 597.653 549.438 625 549.911V500C625 495.056 626.467 490.222 629.214 486.111C631.961 482 635.866 478.796 640.434 476.904C645.002 475.012 650.028 474.516 654.878 475.481C659.727 476.445 664.182 478.825 667.679 482.321L742.679 557.321ZM446.918 334.317C449.589 336.226 452.61 337.591 455.808 338.332C459.007 339.073 462.32 339.177 465.559 338.637C468.797 338.097 471.898 336.924 474.683 335.185C477.468 333.447 479.883 331.176 481.79 328.503L485.519 323.282C501.447 301.047 522.357 282.847 546.576 270.138C570.796 257.428 597.653 250.562 625 250.088V300C625 304.944 626.467 309.778 629.214 313.889C631.961 318 635.865 321.204 640.434 323.097C645.002 324.989 650.028 325.484 654.878 324.52C659.727 323.555 664.182 321.175 667.679 317.679L742.679 242.679C747.367 237.99 750.001 231.631 750.001 225C750.001 218.369 747.367 212.01 742.679 207.321L667.679 132.321C664.182 128.825 659.727 126.445 654.878 125.481C650.028 124.516 645.002 125.012 640.434 126.904C635.866 128.796 631.961 132 629.214 136.111C626.467 140.222 625 145.056 625 150V200.044C589.691 200.535 554.992 209.313 523.698 225.672C492.404 242.03 465.39 265.511 444.833 294.223L441.104 299.445C439.196 302.116 437.832 305.137 437.091 308.335C436.351 311.534 436.247 314.847 436.787 318.085C437.327 321.323 438.5 324.424 440.238 327.209C441.976 329.994 444.246 332.409 446.918 334.317ZM353.082 465.683C350.411 463.774 347.39 462.409 344.192 461.668C340.993 460.927 337.68 460.823 334.441 461.363C331.203 461.903 328.102 463.076 325.317 464.815C322.532 466.554 320.117 468.824 318.21 471.497L314.481 476.718C298.27 499.364 276.898 517.823 252.134 530.567C227.37 543.311 199.927 549.972 172.076 550H100C93.3696 550 87.0107 552.634 82.3223 557.322C77.6339 562.011 75 568.37 75 575C75 581.63 77.6339 587.989 82.3223 592.678C87.0107 597.366 93.3696 600 100 600H172.076C207.884 599.964 243.168 591.398 275.007 575.013C306.847 558.628 334.325 534.894 355.167 505.777L358.896 500.555C360.804 497.884 362.168 494.863 362.908 491.665C363.649 488.466 363.753 485.153 363.213 481.915C362.673 478.677 361.5 475.576 359.762 472.791C358.024 470.006 355.754 467.591 353.082 465.683Z" fill="#1F979E"/>
</svg>
