<svg width="18" height="18" viewBox="0 0 18 18" fill="none" xmlns="http://www.w3.org/2000/svg">
<path d="M15.1247 4C14.8926 4 14.67 4.09573 14.5058 4.26613C14.3417 4.43652 14.2495 4.66763 14.2495 4.90861V8.54306C14.2495 8.78404 14.1572 9.01515 13.9931 9.18555C13.8289 9.35594 13.6063 9.45167 13.3742 9.45167H4.98032L6.11817 8.27956C6.28299 8.10847 6.37558 7.87641 6.37558 7.63445C6.37558 7.39248 6.28299 7.16043 6.11817 6.98933C5.95335 6.81824 5.72981 6.72212 5.49673 6.72212C5.26364 6.72212 5.0401 6.81824 4.87528 6.98933L2.24946 9.71517C2.16978 9.80158 2.10732 9.90348 2.06566 10.015C1.97811 10.2362 1.97811 10.4843 2.06566 10.7056C2.10732 10.8171 2.16978 10.919 2.24946 11.0054L4.87528 13.7312C4.95665 13.8164 5.05346 13.884 5.16012 13.9301C5.26678 13.9763 5.38118 14 5.49673 14C5.61227 14 5.72668 13.9763 5.83334 13.9301C5.94 13.884 6.0368 13.8164 6.11817 13.7312C6.20021 13.6468 6.26532 13.5463 6.30976 13.4356C6.3542 13.3248 6.37708 13.2061 6.37708 13.0861C6.37708 12.9662 6.3542 12.8474 6.30976 12.7367C6.26532 12.626 6.20021 12.5255 6.11817 12.441L4.98032 11.2689H13.3742C14.0706 11.2689 14.7385 10.9817 15.2309 10.4705C15.7234 9.95932 16 9.266 16 8.54306V4.90861C16 4.66763 15.9078 4.43652 15.7436 4.26613C15.5795 4.09573 15.3569 4 15.1247 4Z" fill="#BAC2E0"/>
</svg>
