<svg width="18" height="18" viewBox="0 0 18 18" fill="none" xmlns="http://www.w3.org/2000/svg">
<g clip-path="url(#clip0_2828_1904)">
<path d="M17.9242 16.3382C17.9523 16.1492 18.548 11.6076 15.8773 8.48231C14.2365 6.56194 11.7047 5.51062 8.4354 5.40656L8.41796 2.24925C8.41796 2.03212 8.29253 1.83469 8.09678 1.74131C7.90046 1.64962 7.66815 1.67606 7.49996 1.81331L0.206027 7.79944C0.0755266 7.90631 -0.000410936 8.06606 -0.000973436 8.23481C-0.00153594 8.40356 0.0738391 8.56331 0.204339 8.67019L7.49884 14.7131C7.66646 14.8521 7.90103 14.8807 8.09565 14.7874C8.29309 14.6946 8.41796 14.496 8.41796 14.2789L8.4354 11.0507C16.3155 11.0451 16.8757 16.0941 16.8948 16.3027C16.919 16.5862 17.0985 16.8073 17.3831 16.8163C17.3898 16.8169 17.396 16.8169 17.4022 16.8169C17.6807 16.8169 17.8826 16.6138 17.9242 16.3382ZM7.4589 10.0809C7.35315 10.1867 7.29353 10.3296 7.29353 10.4792V13.0881L1.44971 8.23819L7.29353 3.43331V5.96062C7.29353 6.27169 7.54496 6.52312 7.85603 6.52312C11.0567 6.52312 13.5018 7.45012 15.0195 9.20962C16.1608 10.5337 16.6856 12.1543 16.865 13.4992C15.6365 11.8207 13.4855 9.92006 7.85659 9.91669H7.85546C7.70696 9.91669 7.56409 9.97575 7.4589 10.0809Z" fill="white"/>
</g>
<defs>
<clipPath id="clip0_2828_1904">
<rect width="18" height="18" fill="white"/>
</clipPath>
</defs>
</svg>
