<svg width="24" height="24" viewBox="0 0 24 24" fill="none" xmlns="http://www.w3.org/2000/svg">
<path d="M20.5039 9.36754C20.2505 9.21489 20.0528 8.98475 19.9402 8.71113C19.8276 8.43751 19.806 8.13492 19.8786 7.84808C20.0107 7.33268 20.0062 6.79175 19.8655 6.27864C19.7248 5.76552 19.4527 5.29795 19.0762 4.92204C18.6996 4.54614 18.2316 4.27488 17.7183 4.13502C17.2049 3.99516 16.664 3.99153 16.1488 4.12449C15.8624 4.19688 15.5603 4.17516 15.2872 4.06255C15.0142 3.94994 14.7846 3.75241 14.6325 3.4992C14.3615 3.04238 13.9763 2.66394 13.5147 2.40108C13.0532 2.13822 12.5312 2 12 2C11.4688 2 10.9468 2.13822 10.4853 2.40108C10.0237 2.66394 9.63853 3.04238 9.36754 3.4992C9.21562 3.7534 8.98556 3.95164 8.71171 4.06433C8.43786 4.17703 8.13491 4.19813 7.84808 4.12449C7.333 3.99263 6.79245 3.99723 6.27969 4.13782C5.76692 4.27841 5.29962 4.55015 4.92381 4.92627C4.54801 5.30239 4.27666 5.76992 4.1365 6.2828C3.99634 6.79569 3.9922 7.33624 4.12449 7.85121C4.19739 8.13759 4.17592 8.43985 4.06326 8.71305C3.9506 8.98625 3.75278 9.21579 3.4992 9.36754C3.04238 9.63853 2.66394 10.0237 2.40108 10.4853C2.13822 10.9468 2 11.4688 2 12C2 12.5312 2.13822 13.0532 2.40108 13.5147C2.66394 13.9763 3.04238 14.3615 3.4992 14.6325C3.75303 14.7847 3.95097 15.0148 4.06362 15.2886C4.17627 15.5623 4.19761 15.8651 4.12449 16.1519C3.99263 16.667 3.99723 17.2075 4.13782 17.7203C4.27841 18.2331 4.55015 18.7004 4.92627 19.0762C5.30239 19.452 5.76992 19.7233 6.2828 19.8635C6.79569 20.0037 7.33624 20.0078 7.85121 19.8755C8.13759 19.8031 8.43967 19.8248 8.71276 19.9375C8.98584 20.0501 9.21542 20.2476 9.36754 20.5008C9.63853 20.9576 10.0237 21.3361 10.4853 21.5989C10.9468 21.8618 11.4688 22 12 22C12.5312 22 13.0532 21.8618 13.5147 21.5989C13.9763 21.3361 14.3615 20.9576 14.6325 20.5008C14.7851 20.2473 15.0153 20.0497 15.2889 19.9371C15.5625 19.8245 15.8651 19.8029 16.1519 19.8755C16.667 20.0074 17.2075 20.0028 17.7203 19.8622C18.2331 19.7216 18.7004 19.4499 19.0762 19.0737C19.452 18.6976 19.7233 18.2301 19.8635 17.7172C20.0037 17.2043 20.0078 16.6638 19.8755 16.1488C19.8031 15.8624 19.8248 15.5603 19.9375 15.2872C20.0501 15.0142 20.2476 14.7846 20.5008 14.6325C20.9576 14.3615 21.3361 13.9763 21.5989 13.5147C21.8618 13.0532 22 12.5312 22 12C22 11.4688 21.8618 10.9468 21.5989 10.4853C21.3361 10.0237 20.9576 9.63853 20.5008 9.36754H20.5039ZM19.641 13.1755C19.0751 13.5176 18.6345 14.0329 18.3845 14.645C18.1345 15.2572 18.0883 15.9336 18.2529 16.574C18.3115 16.8041 18.3092 17.0455 18.2462 17.2744C18.1831 17.5033 18.0615 17.7118 17.8932 17.8794C17.725 18.047 17.5161 18.1678 17.2869 18.23C17.0578 18.2922 16.8164 18.2936 16.5865 18.2341C15.9445 18.073 15.2677 18.1229 14.6562 18.3763C14.0448 18.6296 13.5311 19.0731 13.1912 19.641C13.0709 19.8459 12.8991 20.0158 12.6929 20.1339C12.4867 20.252 12.2532 20.3141 12.0156 20.3141C11.778 20.3141 11.5445 20.252 11.3383 20.1339C11.1321 20.0158 10.9604 19.8459 10.8401 19.641C10.5671 19.1838 10.1802 18.8052 9.71713 18.5422C9.25409 18.2792 8.73077 18.1407 8.19825 18.1403C7.94294 18.1402 7.68867 18.1728 7.44165 18.2373C7.21156 18.2959 6.97017 18.2936 6.74125 18.2305C6.51234 18.1675 6.30382 18.0458 6.13624 17.8776C5.96866 17.7094 5.84781 17.5004 5.7856 17.2713C5.7234 17.0421 5.72199 16.8007 5.78151 16.5709C5.9431 15.9289 5.8935 15.2519 5.64008 14.6403C5.38667 14.0287 4.94291 13.5151 4.37461 13.1755C4.1697 13.0553 3.99979 12.8835 3.88173 12.6773C3.76367 12.4711 3.70156 12.2376 3.70156 12C3.70156 11.7624 3.76367 11.5289 3.88173 11.3227C3.99979 11.1165 4.1697 10.9447 4.37461 10.8245C4.94332 10.4847 5.38715 9.97035 5.64008 9.35803C5.893 8.74572 5.94151 8.06811 5.77838 7.42601C5.72046 7.19573 5.72341 6.95434 5.78696 6.72554C5.8505 6.49674 5.97245 6.2884 6.14083 6.12097C6.30921 5.95353 6.51824 5.83276 6.74739 5.7705C6.97654 5.70825 7.21794 5.70665 7.4479 5.76587C8.08944 5.92673 8.76572 5.87677 9.37665 5.62339C9.98759 5.37 10.5007 4.92666 10.8401 4.35897C10.9604 4.15406 11.1321 3.98416 11.3383 3.8661C11.5445 3.74804 11.778 3.68593 12.0156 3.68593C12.2532 3.68593 12.4867 3.74804 12.6929 3.8661C12.8991 3.98416 13.0709 4.15406 13.1912 4.35897C13.531 4.92769 14.0453 5.37152 14.6576 5.62444C15.2699 5.87737 15.9475 5.92587 16.5896 5.76275C16.8198 5.70439 17.0612 5.7069 17.2901 5.77001C17.519 5.83313 17.7276 5.95468 17.8953 6.12275C18.0631 6.29081 18.1842 6.49961 18.2469 6.72864C18.3096 6.95768 18.3117 7.19908 18.2529 7.42914C18.09 8.07079 18.1386 8.74788 18.3915 9.35966C18.6445 9.97144 19.0882 10.4852 19.6567 10.8245C19.8616 10.9447 20.0315 11.1165 20.1495 11.3227C20.2676 11.5289 20.3297 11.7624 20.3297 12C20.3297 12.2376 20.2676 12.4711 20.1495 12.6773C20.0315 12.8835 19.8616 13.0553 19.6567 13.1755H19.641Z" fill="#C8C8C8"/>
<path d="M11.9996 7.77344C11.163 7.77344 10.3451 8.02153 9.64951 8.48633C8.95387 8.95114 8.41169 9.61179 8.09153 10.3847C7.77136 11.1577 7.68759 12.0082 7.85081 12.8288C8.01403 13.6493 8.41691 14.403 9.00849 14.9946C9.60008 15.5862 10.3538 15.9891 11.1744 16.1523C11.9949 16.3155 12.8454 16.2318 13.6184 15.9116C14.3913 15.5914 15.052 15.0493 15.5168 14.3536C15.9816 13.658 16.2297 12.8401 16.2297 12.0035C16.228 10.8821 15.7818 9.80716 14.9889 9.01423C14.196 8.22129 13.121 7.77509 11.9996 7.77344ZM11.9996 14.5422C11.4975 14.5422 11.0067 14.3933 10.5892 14.1143C10.1717 13.8354 9.84633 13.4389 9.65418 12.975C9.46204 12.5111 9.41176 12.0007 9.50972 11.5082C9.60767 11.0158 9.84946 10.5634 10.2045 10.2084C10.5595 9.85336 11.0119 9.61158 11.5043 9.51362C11.9968 9.41567 12.5072 9.46594 12.9711 9.65809C13.435 9.85023 13.8315 10.1756 14.1104 10.5931C14.3894 11.0106 14.5383 11.5014 14.5383 12.0035C14.5375 12.6766 14.2697 13.3218 13.7938 13.7977C13.3179 14.2736 12.6727 14.5414 11.9996 14.5422Z" fill="#C8C8C8"/>
</svg>
