<svg width="32.000000" height="32.000000" viewBox="0 0 32 32" fill="none" xmlns="http://www.w3.org/2000/svg" xmlns:xlink="http://www.w3.org/1999/xlink">
	<desc>
			Created with Pixso.
	</desc>
	<defs>
		<clipPath id="clip40_15">
			<rect id="smart_delay" width="32.000000" height="32.000000" fill="white" fill-opacity="0"/>
		</clipPath>
	</defs>
	<g clip-path="url(#clip40_15)">
		<path id="path" d="M16 2.6665C8.69238 2.6665 2.66699 8.69238 2.66699 16C2.66699 23.3076 8.69238 29.333 16 29.333C23.3076 29.333 29.334 23.3076 29.334 16C29.334 8.69238 23.4365 2.6665 16 2.6665ZM16 27.4102C9.71875 27.4102 4.58984 22.2817 4.58984 16C4.58984 9.71777 9.71875 4.58936 16 4.58936C22.2822 4.58936 27.4102 9.71777 27.4102 16C27.4102 22.2817 22.2822 27.4102 16 27.4102ZM25.2314 15.1025L25.2314 17.0254L15.6152 17.0254L11.2568 11.3843L11.2568 8.30762L16.5127 14.9741L25.2314 15.1025Z" fill="#EB5038" fill-opacity="1.000000" fill-rule="nonzero"/>
	</g>
</svg>
