<svg width="800" height="800" viewBox="0 0 800 800" fill="none" xmlns="http://www.w3.org/2000/svg">
<path d="M583.333 400C684.586 400 766.667 482.081 766.667 583.333C766.667 684.586 684.586 766.667 583.333 766.667C482.081 766.667 400 684.586 400 583.333C400 482.081 482.081 400 583.333 400ZM133.333 433.3L426.98 433.34C389.624 472.269 366.667 525.12 366.667 583.333C366.667 619.579 375.567 653.745 391.3 683.767C356.29 695.432 317.686 700 283.333 700C192.596 700 72.1565 668.132 66.8485 557.655L66.6667 550V499.967C66.6667 463.167 96.5334 433.3 133.333 433.3ZM583.333 466.719L580.337 466.988C573.534 468.223 568.17 473.587 566.935 480.39L566.667 483.386V566.653L483.333 566.667L480.337 566.935C473.534 568.17 468.17 573.534 466.935 580.338L466.667 583.333L466.935 586.329C468.17 593.132 473.534 598.497 480.337 599.732L483.333 600L566.667 599.986V683.333L566.935 686.329C568.17 693.132 573.534 698.497 580.337 699.732L583.333 700L586.329 699.732C593.132 698.497 598.497 693.132 599.731 686.329L600 683.333V599.986L683.333 600L686.329 599.732C693.132 598.497 698.497 593.132 699.731 586.329L700 583.333L699.731 580.338C698.497 573.534 693.132 568.17 686.329 566.935L683.333 566.667L600 566.653V483.386L599.731 480.39C598.497 473.587 593.132 468.223 586.329 466.988L583.333 466.719ZM283.333 66.6667C366.167 66.6667 433.333 133.833 433.333 216.667C433.333 299.5 366.167 366.667 283.333 366.667C200.5 366.667 133.333 299.5 133.333 216.667C133.333 133.833 200.5 66.6667 283.333 66.6667ZM583.333 133.333C647.767 133.333 700 185.567 700 250C700 314.433 647.767 366.667 583.333 366.667C518.9 366.667 466.667 314.433 466.667 250C466.667 185.567 518.9 133.333 583.333 133.333Z" fill="black"/>
</svg>
