<svg width="800" height="800" viewBox="0 0 800 800" fill="none" xmlns="http://www.w3.org/2000/svg">
<g clip-path="url(#clip0_5588_7911)">
<path fill-rule="evenodd" clip-rule="evenodd" d="M400.002 800C342.696 800.092 286.04 787.87 233.868 764.161C181.697 740.453 135.228 705.811 97.6095 662.582C59.9911 619.352 32.1008 568.544 15.8265 513.598C-0.447895 458.652 -4.72594 400.85 3.28172 344.106C11.2894 287.363 31.3976 233.003 62.2417 184.706C93.0858 136.409 133.946 95.3028 182.058 64.1716C230.17 33.0403 284.412 12.6111 341.107 4.26557C397.802 -4.07997 455.625 -0.146568 510.667 15.8002L474.668 75.4C407.277 59.9108 336.738 65.7636 272.821 92.147C208.904 118.531 154.77 164.138 117.926 222.653C81.0818 281.169 63.3493 349.694 67.1815 418.736C71.0136 487.778 96.2232 553.921 139.317 607.999C182.411 662.077 241.256 701.414 307.701 720.562C374.145 739.71 444.899 737.72 510.162 714.867C575.426 692.015 631.968 649.433 671.954 593.018C711.94 536.603 733.39 469.149 733.335 400C733.339 361.884 726.684 324.06 713.67 288.234L756.004 217.967C787.241 278.924 802.29 346.884 799.709 415.33C797.128 483.776 777.001 550.41 741.262 608.841C705.523 667.272 655.369 715.54 595.612 749.013C535.854 782.487 468.496 800.044 400.002 800ZM430.67 512.3C429.16 516.752 426.648 520.8 423.334 524.134C420.229 527.269 416.463 529.671 412.311 531.165C408.159 532.658 403.726 533.206 399.335 532.767C392.404 533.251 385.52 531.348 379.82 527.377C374.12 523.405 369.95 517.603 368.003 510.934L240.668 383.667C235.594 377.949 232.893 370.509 233.12 362.867C233.346 355.226 236.485 347.959 241.888 342.551C247.292 337.143 254.555 334.001 262.197 333.769C269.838 333.537 277.279 336.231 283.002 341.301L391.335 449.667L637.669 83.8666C639.804 79.9607 642.7 76.5219 646.185 73.7531C649.671 70.9842 653.674 68.9413 657.961 67.7452C662.249 66.549 666.733 66.2242 671.149 66.789C675.564 67.3537 679.821 68.7972 683.669 71.034C691.409 75.8095 696.99 83.4078 699.229 92.2223C701.468 101.037 700.19 110.376 695.669 118.267L430.67 512.3Z" fill="white"/>
</g>
<defs>
<clipPath id="clip0_5588_7911">
<rect width="800" height="800" fill="white"/>
</clipPath>
</defs>
</svg>
