<svg width="800" height="800" viewBox="0 0 800 800" fill="none" xmlns="http://www.w3.org/2000/svg">
<path d="M707.693 123.077H92.3083C75.3852 123.077 61.5391 136.923 61.5391 153.846V646.154C61.5391 663.077 75.3852 676.923 92.3083 676.923H707.693C724.616 676.923 738.462 663.077 738.462 646.154V153.846C738.462 136.923 724.616 123.077 707.693 123.077ZM676.924 615.385H123.078V184.616H676.924V615.385Z" fill="white"/>
<path d="M323.077 584.616H170.769C161.539 584.616 155.385 578.462 155.385 569.231V230.769C155.385 221.539 161.539 215.385 170.769 215.385H323.077C332.308 215.385 338.462 221.539 338.462 230.769V569.231C338.462 578.462 332.308 584.616 323.077 584.616Z" fill="white"/>
</svg>
