<svg width="360" height="360" viewBox="0 0 360 360" fill="none" xmlns="http://www.w3.org/2000/svg">
<g clip-path="url(#clip0_5997_2348)">
<g filter="url(#filter0_d_5997_2348)">
<path fill-rule="evenodd" clip-rule="evenodd" d="M285.066 140.918V285.141C285.066 306.898 267.531 324.525 245.603 324.525H114.705C92.9082 324.525 75.2426 306.925 75.2426 285.141V140.918H285.066ZM258.836 140.918V285.154C258.836 292.42 252.856 298.295 245.695 298.295H114.613C107.348 298.295 101.472 292.315 101.472 285.154V140.918H258.836ZM140.803 75.3443C140.803 68.1049 146.718 62.2295 153.8 62.2295H206.495C213.669 62.2295 219.492 68.0525 219.492 75.3443C219.492 82.5836 213.577 88.459 206.495 88.459H153.8C146.626 88.459 140.803 82.6361 140.803 75.3443ZM140.803 167.108C140.803 159.882 146.626 154.033 153.918 154.033C161.157 154.033 167.033 159.974 167.033 167.108V245.875C167.033 253.102 161.21 258.951 153.918 258.951C146.679 258.951 140.803 253.01 140.803 245.875V167.108ZM193.262 167.108C193.262 159.882 199.085 154.033 206.377 154.033C213.616 154.033 219.492 159.974 219.492 167.108V245.875C219.492 253.102 213.669 258.951 206.377 258.951C199.138 258.951 193.262 253.01 193.262 245.875V167.108ZM114.574 88.459H62.0098C54.9803 88.459 49 94.3344 49 101.574C49 108.866 54.823 114.689 62.0098 114.689H298.285C305.315 114.689 311.295 108.813 311.295 101.574C311.295 94.282 305.472 88.459 298.285 88.459H245.721V75.3443C245.721 53.6656 228.108 36 206.377 36H153.931C132.266 36 114.587 53.6131 114.587 75.3443L114.574 88.459Z" fill="#0E193D"/>
</g>
</g>
<defs>
<filter id="filter0_d_5997_2348" x="-213.295" y="-213.18" width="786.885" height="813.115" filterUnits="userSpaceOnUse" color-interpolation-filters="sRGB">
<feFlood flood-opacity="0" result="BackgroundImageFix"/>
<feColorMatrix in="SourceAlpha" type="matrix" values="0 0 0 0 0 0 0 0 0 0 0 0 0 0 0 0 0 0 127 0" result="hardAlpha"/>
<feOffset dy="13.1148"/>
<feGaussianBlur stdDeviation="131.148"/>
<feColorMatrix type="matrix" values="0 0 0 0 0 0 0 0 0 0 0 0 0 0 0 0 0 0 0.1 0"/>
<feBlend mode="normal" in2="BackgroundImageFix" result="effect1_dropShadow_5997_2348"/>
<feBlend mode="normal" in="SourceGraphic" in2="effect1_dropShadow_5997_2348" result="shape"/>
</filter>
<clipPath id="clip0_5997_2348">
<rect width="360" height="360" fill="white"/>
</clipPath>
</defs>
</svg>
