<svg width="800" height="800" viewBox="0 0 800 800" fill="none" xmlns="http://www.w3.org/2000/svg">
<g clip-path="url(#clip0_5588_7913)">
<path fill-rule="evenodd" clip-rule="evenodd" d="M400 800C320.887 800 243.55 776.541 177.771 732.588C111.991 688.636 60.7232 626.164 30.4482 553.074C0.173126 479.983 -7.74795 399.556 7.68613 321.964C23.1202 244.372 61.2157 173.098 117.157 117.157C173.098 61.2164 244.372 23.1202 321.964 7.68607C399.557 -7.74802 479.983 0.173314 553.074 30.4484C626.164 60.7234 688.636 111.993 732.588 177.772C776.541 243.552 800 320.888 800 400C800 506.087 757.857 607.828 682.843 682.843C607.828 757.857 506.086 800 400 800ZM400 66.6669C334.073 66.6669 269.625 86.2165 214.809 122.844C159.993 159.471 117.27 211.53 92.0408 272.439C66.8116 333.348 60.2093 400.37 73.0711 465.03C85.9328 529.691 117.681 589.085 164.298 635.702C210.916 682.32 270.309 714.067 334.969 726.929C399.629 739.79 466.652 733.189 527.561 707.96C588.47 682.731 640.529 640.007 677.156 585.19C713.783 530.374 733.333 465.927 733.333 400C733.333 311.595 698.213 226.81 635.701 164.298C573.189 101.786 488.405 66.6669 400 66.6669ZM556.866 556.867C553.923 559.811 550.428 562.146 546.582 563.739C542.735 565.333 538.613 566.153 534.45 566.153C530.287 566.153 526.165 565.333 522.318 563.739C518.472 562.146 514.978 559.811 512.034 556.867L399.499 444.334L286.967 556.867C284.062 559.946 280.569 562.411 276.695 564.116C272.82 565.821 268.643 566.731 264.41 566.792C260.178 566.854 255.977 566.064 252.055 564.472C248.133 562.88 244.569 560.516 241.577 557.522C238.585 554.528 236.225 550.963 234.635 547.04C233.046 543.117 232.26 538.915 232.324 534.682C232.388 530.45 233.302 526.273 235.01 522.4C236.717 518.527 239.185 515.036 242.267 512.133L354.799 399.6L242.267 287.067C239.185 284.165 236.717 280.674 235.01 276.8C233.302 272.927 232.388 268.751 232.324 264.518C232.26 260.286 233.046 256.083 234.635 252.16C236.225 248.237 238.585 244.673 241.577 241.678C244.569 238.684 248.133 236.321 252.055 234.728C255.977 233.136 260.178 232.347 264.41 232.408C268.643 232.469 272.82 233.379 276.695 235.084C280.569 236.789 284.062 239.254 286.967 242.333L399.499 354.867L512.034 242.333C514.959 239.341 518.448 236.958 522.3 235.323C526.152 233.688 530.29 232.834 534.474 232.81C538.659 232.786 542.807 233.593 546.677 235.183C550.548 236.773 554.066 239.116 557.025 242.075C559.984 245.034 562.327 248.551 563.918 252.422C565.508 256.292 566.314 260.44 566.29 264.625C566.266 268.81 565.412 272.948 563.777 276.8C562.143 280.652 559.759 284.142 556.766 287.067L444.234 399.6L556.766 512.133C562.703 518.057 566.047 526.093 566.066 534.479C566.085 542.866 562.776 550.917 556.866 556.867Z" fill="white"/>
</g>
<defs>
<clipPath id="clip0_5588_7913">
<rect width="800" height="800" fill="white"/>
</clipPath>
</defs>
</svg>
