<svg width="36" height="36" viewBox="0 0 36 36" fill="none" xmlns="http://www.w3.org/2000/svg">
<g id="upload-file-svgrepo-com 1" clip-path="url(#clip0_3011_1749)">
<path id="Vector" d="M31.9166 28.9144C31.9115 28.8229 31.9047 28.7317 31.8959 28.6412C31.8948 28.6307 31.8943 28.62 31.8931 28.6093C31.8829 28.5104 31.8701 28.4124 31.8556 28.3148C31.8517 28.2884 31.8475 28.2622 31.8433 28.2359C31.8301 28.1538 31.8157 28.072 31.7995 27.9908C31.796 27.9731 31.7931 27.9552 31.7894 27.9375C31.7699 27.8434 31.7481 27.7502 31.7248 27.6576C31.7181 27.6309 31.7109 27.6044 31.7039 27.5779C31.6844 27.5045 31.6637 27.4316 31.6417 27.3593C31.6346 27.3355 31.6278 27.3115 31.6204 27.2879C31.5926 27.1999 31.563 27.1126 31.5318 27.0263C31.5218 26.9984 31.5111 26.9709 31.5007 26.9433C31.4764 26.8785 31.4509 26.814 31.4245 26.7502C31.4127 26.7216 31.4012 26.6929 31.3891 26.6646C31.3543 26.5833 31.3179 26.5029 31.28 26.4233C31.2659 26.3937 31.251 26.3645 31.2364 26.3351C31.2087 26.2791 31.1802 26.2236 31.1511 26.1685C31.1338 26.1359 31.1166 26.1031 31.0988 26.0706C31.058 25.9967 31.0162 25.9237 30.9728 25.8515C30.9537 25.8197 30.9335 25.7886 30.9139 25.7572C30.8844 25.7101 30.8545 25.6633 30.8239 25.6168C30.8003 25.5812 30.7767 25.5457 30.7526 25.5105C30.7177 25.4597 30.6819 25.4098 30.6457 25.3601C30.6095 25.3106 30.5726 25.2614 30.5351 25.213C30.5056 25.1748 30.4761 25.1368 30.4458 25.0994C30.4156 25.0621 30.3851 25.0249 30.3541 24.9882C30.3249 24.9535 30.295 24.9196 30.2652 24.8855C30.2119 24.8248 30.1576 24.765 30.1021 24.7063C30.0748 24.6773 30.0475 24.6482 30.0196 24.6197C29.9825 24.5818 29.945 24.5443 29.907 24.5073C29.8814 24.4823 29.8553 24.4578 29.8292 24.4332C29.7601 24.3679 29.6898 24.3042 29.618 24.2419C29.5945 24.2215 29.5711 24.2008 29.5472 24.1806C29.5039 24.1441 29.4601 24.1084 29.4158 24.0729C29.3919 24.0537 29.3675 24.0347 29.3433 24.0159C29.2574 23.9489 29.1699 23.8841 29.0807 23.8213C29.0645 23.8099 29.0487 23.7982 29.0324 23.7869C28.9838 23.7534 28.9346 23.7208 28.885 23.6884C28.8611 23.6727 28.8369 23.6574 28.8128 23.642C28.703 23.5723 28.5915 23.5053 28.4775 23.442C27.5153 22.9074 26.4082 22.6018 25.2294 22.6018C21.5295 22.6018 18.5302 25.6011 18.5302 29.301C18.5302 32.1779 20.344 34.6305 22.89 35.5796C22.9579 35.6049 23.0271 35.6282 23.0961 35.6514C23.1252 35.6611 23.1539 35.6714 23.1831 35.6809C23.2451 35.7008 23.3079 35.7189 23.3708 35.7372C23.4086 35.7481 23.4463 35.7592 23.4844 35.7694C23.5428 35.7851 23.6018 35.7997 23.6608 35.8139C23.705 35.8245 23.7491 35.8349 23.7936 35.8445C23.8491 35.8567 23.9047 35.868 23.9606 35.8787C24.0107 35.8883 24.0612 35.8973 24.1117 35.9057C24.1636 35.9145 24.2157 35.923 24.2681 35.9306C24.3252 35.9388 24.3826 35.9457 24.4403 35.9525C24.4876 35.9582 24.535 35.964 24.5826 35.9686C24.6504 35.9751 24.7188 35.9797 24.7873 35.9842C24.826 35.9867 24.8644 35.9901 24.9032 35.992C25.0114 35.9973 25.1201 36.0003 25.2295 36.0003C25.3386 36.0003 25.447 35.9972 25.5548 35.992C25.5909 35.9903 25.6266 35.9871 25.6626 35.9848C25.734 35.9802 25.8051 35.9754 25.8759 35.9686C25.9187 35.9645 25.9612 35.9593 26.0037 35.9544C26.067 35.9471 26.1302 35.9394 26.1929 35.9303C26.2378 35.9238 26.2825 35.9166 26.3271 35.9093C26.3868 35.8994 26.4464 35.8889 26.5055 35.8775C26.551 35.8687 26.5962 35.8597 26.6413 35.85C26.6993 35.8376 26.757 35.8241 26.8145 35.8101C26.8592 35.7993 26.9038 35.7886 26.9482 35.7768C27.0064 35.7614 27.0641 35.7445 27.1217 35.7276C27.1639 35.7151 27.2064 35.7033 27.2483 35.6902C27.3147 35.6692 27.3802 35.6464 27.4457 35.6234C27.4775 35.6123 27.5099 35.6021 27.5414 35.5905C27.743 35.5163 27.9402 35.4329 28.1323 35.3404C28.1361 35.3385 28.1399 35.3364 28.1438 35.3347C28.227 35.2945 28.3089 35.2521 28.3901 35.2085C28.4154 35.195 28.4406 35.1811 28.4656 35.1671C28.5309 35.131 28.5954 35.0939 28.6593 35.0557C28.6799 35.0434 28.7007 35.0315 28.7211 35.0191C28.8018 34.9697 28.8815 34.9186 28.9599 34.866C28.9785 34.8535 28.9967 34.8404 29.0152 34.8277C29.0774 34.7851 29.1387 34.7415 29.1992 34.6968C29.2223 34.6798 29.2453 34.6627 29.2682 34.6454C29.3373 34.5932 29.4055 34.5397 29.4725 34.4849C29.4797 34.4789 29.4872 34.4734 29.4943 34.4674C29.5674 34.4071 29.6387 34.3447 29.7091 34.2813C29.7297 34.2629 29.7498 34.244 29.7701 34.2253C29.8241 34.1755 29.8773 34.1249 29.9296 34.0733C29.9474 34.0557 29.9657 34.0383 29.9833 34.0204C30.0498 33.9534 30.1151 33.8852 30.1787 33.8154C30.1917 33.8012 30.2042 33.7864 30.217 33.7721C30.269 33.7143 30.3199 33.6554 30.3697 33.5958C30.388 33.5741 30.4061 33.5521 30.4241 33.5301C30.4759 33.4665 30.5268 33.4019 30.5764 33.3364C30.585 33.3249 30.5941 33.3138 30.6026 33.3023C30.6593 33.2262 30.7141 33.1487 30.7677 33.0701C30.7826 33.0483 30.7971 33.0261 30.8117 33.004C30.8526 32.9426 30.8925 32.8803 30.9314 32.8175C30.9452 32.7952 30.9591 32.773 30.9726 32.7505C31.0219 32.6688 31.0697 32.5861 31.1154 32.5022C31.1224 32.4893 31.1289 32.4761 31.136 32.4631C31.175 32.3903 31.2126 32.3166 31.249 32.2423C31.2614 32.2169 31.2738 32.1913 31.2858 32.1657C31.3202 32.0933 31.3532 32.0202 31.385 31.9463C31.392 31.9298 31.3996 31.9137 31.4067 31.8971C31.444 31.8082 31.4793 31.7182 31.513 31.6275C31.5217 31.6041 31.5298 31.5805 31.5382 31.557C31.5638 31.4854 31.5883 31.4132 31.6114 31.3406C31.6197 31.3146 31.6282 31.2887 31.6362 31.2626C31.6649 31.1691 31.692 31.0748 31.7166 30.9795C31.7188 30.9712 31.7205 30.9628 31.7225 30.9546C31.7449 30.8668 31.765 30.7782 31.7838 30.6891C31.7897 30.6612 31.7952 30.6332 31.8008 30.6051C31.8163 30.5264 31.8304 30.4472 31.8431 30.3676C31.8465 30.3465 31.8503 30.3257 31.8535 30.3046C31.8683 30.2062 31.8809 30.107 31.8913 30.0072C31.8937 29.9835 31.8955 29.9596 31.8978 29.9358C31.9052 29.8562 31.9113 29.7762 31.9161 29.6959C31.9177 29.6671 31.9195 29.6381 31.9208 29.6092C31.9254 29.507 31.9287 29.4044 31.9287 29.301C31.9287 29.1982 31.9255 29.096 31.9209 28.9943C31.9195 28.9674 31.9181 28.9409 31.9166 28.9144ZM27.2592 33.4286H22.6577C22.097 33.4286 21.6427 32.9742 21.6427 32.4135C21.6427 31.8528 22.097 31.3985 22.6577 31.3985H27.2592C27.8199 31.3985 28.2743 31.8528 28.2743 32.4135C28.2743 32.9742 27.8199 33.4286 27.2592 33.4286ZM28.1703 27.9231C27.773 28.3186 27.1079 28.317 26.7122 27.92L26.1314 27.3592V29.3684C26.1314 29.9291 25.6771 30.3835 25.1164 30.3835C24.5557 30.3835 24.1014 29.9291 24.1014 29.3684V27.3496L23.5511 27.9215C23.1541 28.3175 22.5231 28.3167 22.1268 27.9202C21.7308 27.5234 21.737 26.8806 22.1337 26.4846L24.4361 24.1893C24.4865 24.1383 24.5441 24.0923 24.605 24.0525L24.6064 24.0519C24.679 24.0046 24.7574 24.0009 24.8383 23.9738C24.9438 23.9384 25.0532 23.9549 25.1612 23.9549H25.1643C25.2678 23.9549 25.3719 23.9374 25.473 23.97C25.5646 23.9995 25.6523 24.0253 25.7333 24.0805L25.734 24.0724C25.7889 24.1098 25.8397 24.1484 25.8858 24.1952L28.1727 26.4884C28.5685 26.8858 28.5673 27.5274 28.1703 27.9231ZM27.752 6.63158H21.3946V0.504947L27.752 6.63158ZM16.5 29.3008C16.5 24.4874 20.3934 20.5714 25.2067 20.5714C26.3543 20.5714 27.4848 20.7962 28.4322 21.2006V8.66165H20.4246C19.8639 8.66165 19.3645 8.20732 19.3645 7.64662V0H5.13139C4.57069 0 4.07129 0.454331 4.07129 1.01504V34.5065C4.07129 35.0659 4.54619 35.5197 5.10554 35.5216L19.1496 35.5671C17.5105 33.9793 16.5 31.7577 16.5 29.3008ZM9.39455 12.5865H22.7931C23.3538 12.5865 23.8081 13.0408 23.8081 13.6015C23.8081 14.1622 23.3538 14.6165 22.7931 14.6165H9.39455C8.83385 14.6165 8.37952 14.1622 8.37952 13.6015C8.37952 13.0408 8.83398 12.5865 9.39455 12.5865ZM8.37952 17.797C8.37952 17.2363 8.83385 16.782 9.39455 16.782H22.7931C23.3538 16.782 23.8081 17.2363 23.8081 17.797C23.8081 18.3577 23.3538 18.812 22.7931 18.812H9.39455C8.83398 18.812 8.37952 18.3577 8.37952 17.797Z" fill="#BAC2E0"/>
</g>
<defs>
<clipPath id="clip0_3011_1749">
<rect width="36" height="36" fill="white"/>
</clipPath>
</defs>
</svg>
