<svg width="800" height="800" viewBox="0 0 800 800" fill="none" xmlns="http://www.w3.org/2000/svg">
<path d="M523.667 423.667C556.346 397.955 580.2 362.697 591.908 322.798C603.616 282.899 602.597 240.342 588.993 201.049C575.388 161.756 549.875 127.68 516.002 103.562C482.129 79.4439 441.582 66.4834 400 66.4834C358.418 66.4834 317.87 79.4439 283.998 103.562C250.125 127.68 224.611 161.756 211.007 201.049C197.403 240.342 196.384 282.899 208.092 322.798C219.8 362.697 243.653 397.955 276.333 423.667C220.336 446.101 171.476 483.312 134.963 531.33C98.4498 579.349 75.652 636.377 68.9999 696.333C68.5184 700.711 68.9038 705.14 70.1341 709.368C71.3644 713.597 73.4155 717.542 76.1703 720.977C81.7339 727.916 89.826 732.361 98.6666 733.333C107.507 734.306 116.372 731.726 123.311 726.163C130.25 720.599 134.694 712.507 135.667 703.667C142.986 638.506 174.056 578.327 222.941 534.626C271.825 490.926 335.097 466.768 400.667 466.768C466.237 466.768 529.508 490.926 578.393 534.626C627.277 578.327 658.347 638.506 665.666 703.667C666.573 711.857 670.481 719.422 676.637 724.9C682.792 730.379 690.759 733.383 699 733.333H702.667C711.404 732.328 719.391 727.91 724.885 721.042C730.38 714.173 732.937 705.412 732 696.667C725.316 636.54 702.396 579.366 665.695 531.273C628.994 483.181 579.897 445.983 523.667 423.667ZM400 400C373.629 400 347.85 392.18 325.924 377.529C303.997 362.878 286.908 342.055 276.816 317.691C266.724 293.328 264.084 266.519 269.228 240.655C274.373 214.79 287.072 191.033 305.719 172.386C324.366 153.739 348.124 141.04 373.988 135.895C399.852 130.751 426.661 133.391 451.024 143.483C475.388 153.574 496.212 170.664 510.862 192.591C525.513 214.517 533.333 240.296 533.333 266.667C533.333 302.029 519.286 335.943 494.281 360.947C469.276 385.952 435.362 400 400 400Z" fill="white"/>
</svg>
